<svg width="1200" height="627" viewBox="0 0 1200 627" fill="none" xmlns="http://www.w3.org/2000/svg">
<rect width="1200" height="627" fill="#22272E"/>
<path d="M390 325.8C385.68 325.8 381.627 325 377.84 323.4C374.107 321.747 370.827 319.48 368 316.6C365.227 313.667 363.04 310.253 361.44 306.36C359.893 302.467 359.12 298.253 359.12 293.72C359.12 289.24 359.893 285.08 361.44 281.24C363.04 277.347 365.227 273.96 368 271.08C370.827 268.147 374.107 265.853 377.84 264.2C381.573 262.547 385.627 261.72 390 261.72C394.107 261.72 397.627 262.253 400.56 263.32C403.547 264.387 406.533 266.147 409.52 268.6C409.947 268.92 410.267 269.267 410.48 269.64C410.747 269.96 410.907 270.307 410.96 270.68C411.067 271 411.12 271.4 411.12 271.88C411.12 272.893 410.747 273.747 410 274.44C409.307 275.08 408.453 275.453 407.44 275.56C406.427 275.613 405.44 275.267 404.48 274.52C402.507 272.813 400.453 271.507 398.32 270.6C396.24 269.693 393.467 269.24 390 269.24C386.853 269.24 383.893 269.88 381.12 271.16C378.347 272.44 375.893 274.2 373.76 276.44C371.68 278.68 370.053 281.293 368.88 284.28C367.707 287.213 367.12 290.36 367.12 293.72C367.12 297.133 367.707 300.333 368.88 303.32C370.053 306.253 371.68 308.84 373.76 311.08C375.893 313.32 378.347 315.08 381.12 316.36C383.893 317.587 386.853 318.2 390 318.2C392.72 318.2 395.28 317.747 397.68 316.84C400.133 315.88 402.48 314.573 404.72 312.92C405.68 312.227 406.613 311.933 407.52 312.04C408.48 312.093 409.28 312.467 409.92 313.16C410.56 313.8 410.88 314.707 410.88 315.88C410.88 316.413 410.773 316.947 410.56 317.48C410.347 317.96 410.027 318.413 409.6 318.84C406.72 321.133 403.627 322.867 400.32 324.04C397.067 325.213 393.627 325.8 390 325.8ZM427.468 309.08C426.294 309.08 425.308 308.707 424.508 307.96C423.761 307.16 423.388 306.173 423.388 305V266.6C423.388 265.373 423.761 264.387 424.508 263.64C425.308 262.893 426.294 262.52 427.468 262.52C428.694 262.52 429.681 262.893 430.428 263.64C431.174 264.387 431.548 265.373 431.548 266.6V305C431.548 306.173 431.174 307.16 430.428 307.96C429.681 308.707 428.694 309.08 427.468 309.08ZM460.348 325.08C459.174 325.08 458.188 324.707 457.388 323.96C456.641 323.16 456.268 322.173 456.268 321V301.32C456.268 298.28 455.708 295.8 454.588 293.88C453.468 291.96 451.948 290.547 450.028 289.64C448.161 288.68 446.001 288.2 443.548 288.2C441.308 288.2 439.281 288.653 437.468 289.56C435.654 290.467 434.214 291.693 433.148 293.24C432.081 294.733 431.548 296.467 431.548 298.44H426.508C426.508 295.08 427.308 292.093 428.908 289.48C430.561 286.813 432.801 284.707 435.628 283.16C438.454 281.613 441.628 280.84 445.148 280.84C448.828 280.84 452.108 281.64 454.988 283.24C457.921 284.787 460.214 287.08 461.868 290.12C463.574 293.16 464.428 296.893 464.428 301.32V321C464.428 322.173 464.028 323.16 463.227 323.96C462.481 324.707 461.521 325.08 460.348 325.08ZM427.468 325.08C426.294 325.08 425.308 324.707 424.508 323.96C423.761 323.16 423.388 322.173 423.388 321V285.32C423.388 284.093 423.761 283.107 424.508 282.36C425.308 281.613 426.294 281.24 427.468 281.24C428.694 281.24 429.681 281.613 430.428 282.36C431.174 283.107 431.548 284.093 431.548 285.32V321C431.548 322.173 431.174 323.16 430.428 323.96C429.681 324.707 428.694 325.08 427.468 325.08ZM497.837 325.32C493.517 325.32 489.704 324.387 486.397 322.52C483.09 320.6 480.477 317.987 478.557 314.68C476.69 311.32 475.757 307.48 475.757 303.16C475.757 298.787 476.69 294.947 478.557 291.64C480.477 288.28 483.09 285.667 486.397 283.8C489.704 281.88 493.517 280.92 497.837 280.92C502.104 280.92 505.89 281.88 509.197 283.8C512.504 285.667 515.09 288.28 516.957 291.64C518.877 294.947 519.837 298.787 519.837 303.16C519.837 307.48 518.904 311.32 517.037 314.68C515.17 317.987 512.584 320.6 509.277 322.52C505.97 324.387 502.157 325.32 497.837 325.32ZM497.837 318.12C500.61 318.12 503.064 317.48 505.197 316.2C507.33 314.92 508.984 313.16 510.157 310.92C511.384 308.68 511.997 306.093 511.997 303.16C511.997 300.227 511.384 297.64 510.157 295.4C508.984 293.107 507.33 291.32 505.197 290.04C503.064 288.76 500.61 288.12 497.837 288.12C495.064 288.12 492.61 288.76 490.477 290.04C488.344 291.32 486.664 293.107 485.437 295.4C484.21 297.64 483.597 300.227 483.597 303.16C483.597 306.093 484.21 308.68 485.437 310.92C486.664 313.16 488.344 314.92 490.477 316.2C492.61 317.48 495.064 318.12 497.837 318.12ZM547.901 325C545.235 325 542.835 324.333 540.701 323C538.568 321.613 536.888 319.747 535.661 317.4C534.435 315.053 533.821 312.413 533.821 309.48V271.32C533.821 270.147 534.195 269.187 534.941 268.44C535.688 267.693 536.648 267.32 537.821 267.32C538.995 267.32 539.955 267.693 540.701 268.44C541.448 269.187 541.821 270.147 541.821 271.32V309.48C541.821 311.613 542.408 313.4 543.581 314.84C544.755 316.28 546.195 317 547.901 317H550.621C551.581 317 552.381 317.373 553.021 318.12C553.715 318.867 554.061 319.827 554.061 321C554.061 322.173 553.608 323.133 552.701 323.88C551.848 324.627 550.728 325 549.341 325H547.901ZM530.141 289.72C529.021 289.72 528.115 289.4 527.421 288.76C526.728 288.12 526.381 287.32 526.381 286.36C526.381 285.293 526.728 284.44 527.421 283.8C528.115 283.16 529.021 282.84 530.141 282.84H548.621C549.741 282.84 550.648 283.16 551.341 283.8C552.035 284.44 552.381 285.293 552.381 286.36C552.381 287.32 552.035 288.12 551.341 288.76C550.648 289.4 549.741 289.72 548.621 289.72H530.141ZM583.931 325.32C579.611 325.32 575.797 324.387 572.491 322.52C569.184 320.6 566.571 317.987 564.651 314.68C562.784 311.32 561.851 307.48 561.851 303.16C561.851 298.787 562.784 294.947 564.651 291.64C566.571 288.28 569.184 285.667 572.491 283.8C575.797 281.88 579.611 280.92 583.931 280.92C588.197 280.92 591.984 281.88 595.291 283.8C598.597 285.667 601.184 288.28 603.051 291.64C604.971 294.947 605.931 298.787 605.931 303.16C605.931 307.48 604.997 311.32 603.131 314.68C601.264 317.987 598.677 320.6 595.371 322.52C592.064 324.387 588.251 325.32 583.931 325.32ZM583.931 318.12C586.704 318.12 589.157 317.48 591.291 316.2C593.424 314.92 595.077 313.16 596.251 310.92C597.477 308.68 598.091 306.093 598.091 303.16C598.091 300.227 597.477 297.64 596.251 295.4C595.077 293.107 593.424 291.32 591.291 290.04C589.157 288.76 586.704 288.12 583.931 288.12C581.157 288.12 578.704 288.76 576.571 290.04C574.437 291.32 572.757 293.107 571.531 295.4C570.304 297.64 569.691 300.227 569.691 303.16C569.691 306.093 570.304 308.68 571.531 310.92C572.757 313.16 574.437 314.92 576.571 316.2C578.704 317.48 581.157 318.12 583.931 318.12ZM633.995 325C631.328 325 628.928 324.333 626.795 323C624.662 321.613 622.982 319.747 621.755 317.4C620.528 315.053 619.915 312.413 619.915 309.48V271.32C619.915 270.147 620.288 269.187 621.035 268.44C621.782 267.693 622.742 267.32 623.915 267.32C625.088 267.32 626.048 267.693 626.795 268.44C627.542 269.187 627.915 270.147 627.915 271.32V309.48C627.915 311.613 628.502 313.4 629.675 314.84C630.848 316.28 632.288 317 633.995 317H636.715C637.675 317 638.475 317.373 639.115 318.12C639.808 318.867 640.155 319.827 640.155 321C640.155 322.173 639.702 323.133 638.795 323.88C637.942 324.627 636.822 325 635.435 325H633.995ZM616.235 289.72C615.115 289.72 614.208 289.4 613.515 288.76C612.822 288.12 612.475 287.32 612.475 286.36C612.475 285.293 612.822 284.44 613.515 283.8C614.208 283.16 615.115 282.84 616.235 282.84H634.715C635.835 282.84 636.742 283.16 637.435 283.8C638.128 284.44 638.475 285.293 638.475 286.36C638.475 287.32 638.128 288.12 637.435 288.76C636.742 289.4 635.835 289.72 634.715 289.72H616.235ZM678.582 325C677.409 325 676.422 324.6 675.622 323.8C674.822 323 674.422 322.013 674.422 320.84V266.68C674.422 265.453 674.822 264.467 675.622 263.72C676.422 262.92 677.409 262.52 678.582 262.52H714.742C715.969 262.52 716.955 262.893 717.702 263.64C718.449 264.333 718.822 265.267 718.822 266.44C718.822 267.56 718.449 268.467 717.702 269.16C716.955 269.853 715.969 270.2 714.742 270.2H682.742V289.64H705.702C706.929 289.64 707.915 290.013 708.662 290.76C709.409 291.453 709.782 292.36 709.782 293.48C709.782 294.6 709.409 295.533 708.662 296.28C707.915 296.973 706.929 297.32 705.702 297.32H682.742V317.32H714.742C715.969 317.32 716.955 317.667 717.702 318.36C718.449 319.053 718.822 319.96 718.822 321.08C718.822 322.253 718.449 323.213 717.702 323.96C716.955 324.653 715.969 325 714.742 325H678.582ZM750.278 325.8C746.864 325.8 743.611 325.267 740.518 324.2C737.424 323.133 734.731 321.64 732.438 319.72C730.144 317.8 728.464 315.587 727.398 313.08C726.864 311.96 726.864 310.92 727.398 309.96C727.984 309 728.944 308.387 730.278 308.12C731.238 307.907 732.171 308.067 733.078 308.6C734.038 309.08 734.758 309.827 735.238 310.84C735.878 312.173 736.918 313.4 738.358 314.52C739.851 315.64 741.638 316.547 743.718 317.24C745.798 317.933 747.984 318.28 750.278 318.28C752.838 318.28 755.184 317.88 757.318 317.08C759.504 316.28 761.264 315.133 762.598 313.64C763.931 312.093 764.598 310.2 764.598 307.96C764.598 305.133 763.478 302.6 761.238 300.36C759.051 298.12 755.424 296.733 750.358 296.2C743.744 295.56 738.544 293.613 734.758 290.36C730.971 287.107 729.078 283.08 729.078 278.28C729.078 274.76 730.064 271.773 732.038 269.32C734.011 266.867 736.678 265 740.038 263.72C743.451 262.44 747.238 261.8 751.398 261.8C754.651 261.8 757.478 262.253 759.878 263.16C762.331 264.067 764.464 265.32 766.278 266.92C768.091 268.52 769.664 270.413 770.998 272.6C771.744 273.773 772.038 274.893 771.878 275.96C771.771 276.973 771.264 277.773 770.358 278.36C769.344 279 768.251 279.133 767.078 278.76C765.904 278.387 765.024 277.693 764.438 276.68C763.584 275.133 762.544 273.827 761.318 272.76C760.091 271.693 758.651 270.867 756.998 270.28C755.344 269.64 753.398 269.32 751.158 269.32C747.211 269.267 743.904 270.013 741.238 271.56C738.571 273.053 737.238 275.373 737.238 278.52C737.238 280.12 737.638 281.667 738.438 283.16C739.291 284.6 740.811 285.853 742.997 286.92C745.238 287.987 748.438 288.733 752.598 289.16C758.944 289.8 763.878 291.747 767.398 295C770.971 298.2 772.758 302.44 772.758 307.72C772.758 310.76 772.118 313.4 770.838 315.64C769.611 317.88 767.931 319.773 765.798 321.32C763.718 322.813 761.318 323.933 758.598 324.68C755.931 325.427 753.158 325.8 750.278 325.8ZM789.596 325C788.422 325 787.436 324.6 786.636 323.8C785.889 323 785.516 322.013 785.516 320.84V266.68C785.516 265.507 785.916 264.52 786.716 263.72C787.516 262.92 788.476 262.52 789.596 262.52C790.769 262.52 791.756 262.92 792.556 263.72C793.356 264.52 793.756 265.507 793.756 266.68V316.68H822.716C823.889 316.68 824.876 317.08 825.676 317.88C826.476 318.68 826.876 319.667 826.876 320.84C826.876 322.013 826.476 323 825.676 323.8C824.876 324.6 823.889 325 822.716 325H789.596ZM840.924 325C839.75 325 838.764 324.627 837.964 323.88C837.217 323.08 836.844 322.093 836.844 320.92V285.32C836.844 284.093 837.217 283.107 837.964 282.36C838.764 281.613 839.75 281.24 840.924 281.24C842.15 281.24 843.137 281.613 843.884 282.36C844.63 283.107 845.004 284.093 845.004 285.32V320.92C845.004 322.093 844.63 323.08 843.884 323.88C843.137 324.627 842.15 325 840.924 325ZM840.924 274.12C839.484 274.12 838.23 273.613 837.164 272.6C836.15 271.533 835.644 270.28 835.644 268.84C835.644 267.4 836.15 266.173 837.164 265.16C838.23 264.093 839.484 263.56 840.924 263.56C842.364 263.56 843.59 264.093 844.604 265.16C845.67 266.173 846.204 267.4 846.204 268.84C846.204 270.28 845.67 271.533 844.604 272.6C843.59 273.613 842.364 274.12 840.924 274.12ZM897.144 325.08C895.971 325.08 894.984 324.707 894.184 323.96C893.438 323.16 893.064 322.173 893.064 321V301.32C893.064 298.28 892.504 295.8 891.384 293.88C890.264 291.96 888.744 290.547 886.824 289.64C884.958 288.68 882.798 288.2 880.344 288.2C878.104 288.2 876.078 288.653 874.264 289.56C872.451 290.467 871.011 291.693 869.944 293.24C868.878 294.733 868.344 296.467 868.344 298.44H863.304C863.304 295.08 864.104 292.093 865.704 289.48C867.358 286.813 869.598 284.707 872.424 283.16C875.251 281.613 878.424 280.84 881.944 280.84C885.624 280.84 888.904 281.64 891.784 283.24C894.718 284.787 897.011 287.08 898.664 290.12C900.371 293.16 901.224 296.893 901.224 301.32V321C901.224 322.173 900.824 323.16 900.024 323.96C899.278 324.707 898.318 325.08 897.144 325.08ZM864.264 325.08C863.091 325.08 862.104 324.707 861.304 323.96C860.558 323.16 860.184 322.173 860.184 321V285.32C860.184 284.093 860.558 283.107 861.304 282.36C862.104 281.613 863.091 281.24 864.264 281.24C865.491 281.24 866.478 281.613 867.224 282.36C867.971 283.107 868.344 284.093 868.344 285.32V321C868.344 322.173 867.971 323.16 867.224 323.96C866.478 324.707 865.491 325.08 864.264 325.08ZM930.636 325C927.969 325 925.569 324.333 923.436 323C921.302 321.613 919.622 319.747 918.396 317.4C917.169 315.053 916.556 312.413 916.556 309.48V271.32C916.556 270.147 916.929 269.187 917.676 268.44C918.422 267.693 919.382 267.32 920.556 267.32C921.729 267.32 922.689 267.693 923.436 268.44C924.182 269.187 924.556 270.147 924.556 271.32V309.48C924.556 311.613 925.142 313.4 926.316 314.84C927.489 316.28 928.929 317 930.636 317H933.356C934.316 317 935.116 317.373 935.756 318.12C936.449 318.867 936.796 319.827 936.796 321C936.796 322.173 936.342 323.133 935.436 323.88C934.582 324.627 933.462 325 932.076 325H930.636ZM912.876 289.72C911.756 289.72 910.849 289.4 910.156 288.76C909.462 288.12 909.116 287.32 909.116 286.36C909.116 285.293 909.462 284.44 910.156 283.8C910.849 283.16 911.756 282.84 912.876 282.84H931.356C932.476 282.84 933.382 283.16 934.076 283.8C934.769 284.44 935.116 285.293 935.116 286.36C935.116 287.32 934.769 288.12 934.076 288.76C933.382 289.4 932.476 289.72 931.356 289.72H912.876Z" fill="#ADBAC7"/>
<path d="M370.8 369.2C369.947 369.2 369.153 369.08 368.42 368.84C367.7 368.587 367.073 368.233 366.54 367.78C366.007 367.327 365.6 366.8 365.32 366.2C365.213 365.987 365.207 365.793 365.3 365.62C365.407 365.433 365.58 365.307 365.82 365.24C366.007 365.187 366.187 365.207 366.36 365.3C366.547 365.393 366.687 365.533 366.78 365.72C366.98 366.107 367.273 366.453 367.66 366.76C368.047 367.067 368.507 367.307 369.04 367.48C369.573 367.64 370.16 367.72 370.8 367.72C371.507 367.72 372.133 367.607 372.68 367.38C373.227 367.14 373.653 366.8 373.96 366.36C374.28 365.907 374.44 365.36 374.44 364.72C374.44 363.907 374.14 363.207 373.54 362.62C372.94 362.033 372 361.66 370.72 361.5C369.16 361.313 367.94 360.833 367.06 360.06C366.18 359.273 365.74 358.313 365.74 357.18C365.74 356.367 365.953 355.66 366.38 355.06C366.82 354.46 367.42 354 368.18 353.68C368.94 353.347 369.813 353.18 370.8 353.18C371.533 353.18 372.2 353.3 372.8 353.54C373.4 353.767 373.92 354.073 374.36 354.46C374.813 354.833 375.18 355.247 375.46 355.7C375.593 355.913 375.633 356.12 375.58 356.32C375.54 356.52 375.427 356.673 375.24 356.78C375.04 356.873 374.833 356.887 374.62 356.82C374.42 356.753 374.267 356.627 374.16 356.44C373.96 356.133 373.707 355.847 373.4 355.58C373.107 355.3 372.747 355.08 372.32 354.92C371.893 354.76 371.38 354.673 370.78 354.66C369.727 354.66 368.88 354.887 368.24 355.34C367.6 355.78 367.28 356.427 367.28 357.28C367.28 357.733 367.4 358.153 367.64 358.54C367.88 358.913 368.273 359.24 368.82 359.52C369.38 359.787 370.127 359.987 371.06 360.12C372.727 360.36 373.96 360.873 374.76 361.66C375.573 362.433 375.98 363.447 375.98 364.7C375.98 365.42 375.847 366.06 375.58 366.62C375.327 367.18 374.96 367.653 374.48 368.04C374.013 368.413 373.46 368.7 372.82 368.9C372.193 369.1 371.52 369.2 370.8 369.2ZM384.002 369.1C382.922 369.1 381.962 368.867 381.122 368.4C380.296 367.92 379.642 367.26 379.162 366.42C378.696 365.58 378.462 364.62 378.462 363.54C378.462 362.447 378.682 361.487 379.122 360.66C379.576 359.82 380.196 359.16 380.982 358.68C381.769 358.2 382.676 357.96 383.702 357.96C384.716 357.96 385.596 358.193 386.342 358.66C387.102 359.113 387.689 359.747 388.102 360.56C388.516 361.373 388.722 362.3 388.722 363.34C388.722 363.553 388.656 363.727 388.522 363.86C388.389 363.98 388.216 364.04 388.002 364.04H379.502V362.76H388.162L387.302 363.38C387.316 362.607 387.176 361.913 386.882 361.3C386.589 360.687 386.169 360.207 385.622 359.86C385.089 359.513 384.449 359.34 383.702 359.34C382.942 359.34 382.276 359.52 381.702 359.88C381.129 360.24 380.682 360.74 380.362 361.38C380.056 362.007 379.902 362.727 379.902 363.54C379.902 364.353 380.076 365.073 380.422 365.7C380.782 366.327 381.269 366.82 381.882 367.18C382.496 367.54 383.202 367.72 384.002 367.72C384.482 367.72 384.962 367.64 385.442 367.48C385.936 367.307 386.329 367.093 386.622 366.84C386.769 366.72 386.936 366.66 387.122 366.66C387.309 366.647 387.469 366.693 387.602 366.8C387.776 366.96 387.862 367.133 387.862 367.32C387.876 367.507 387.802 367.667 387.642 367.8C387.202 368.173 386.642 368.487 385.962 368.74C385.282 368.98 384.629 369.1 384.002 369.1ZM400.707 369C400.481 369 400.294 368.927 400.147 368.78C400.001 368.633 399.927 368.453 399.927 368.24V363.04C399.927 362.213 399.767 361.533 399.447 361C399.141 360.467 398.714 360.067 398.167 359.8C397.634 359.533 397.027 359.4 396.347 359.4C395.694 359.4 395.101 359.527 394.567 359.78C394.047 360.033 393.634 360.38 393.327 360.82C393.021 361.26 392.867 361.76 392.867 362.32H391.767C391.794 361.48 392.021 360.733 392.447 360.08C392.874 359.413 393.441 358.893 394.147 358.52C394.854 358.133 395.641 357.94 396.507 357.94C397.454 357.94 398.301 358.14 399.047 358.54C399.794 358.927 400.381 359.5 400.807 360.26C401.247 361.02 401.467 361.947 401.467 363.04V368.24C401.467 368.453 401.394 368.633 401.247 368.78C401.101 368.927 400.921 369 400.707 369ZM392.107 369C391.867 369 391.674 368.933 391.527 368.8C391.394 368.653 391.327 368.467 391.327 368.24V358.84C391.327 358.6 391.394 358.413 391.527 358.28C391.674 358.133 391.867 358.06 392.107 358.06C392.334 358.06 392.514 358.133 392.647 358.28C392.794 358.413 392.867 358.6 392.867 358.84V368.24C392.867 368.467 392.794 368.653 392.647 368.8C392.514 368.933 392.334 369 392.107 369ZM408.683 369.1C407.896 369.1 407.116 368.967 406.343 368.7C405.569 368.433 404.943 368.033 404.463 367.5C404.316 367.34 404.256 367.16 404.283 366.96C404.309 366.76 404.409 366.587 404.583 366.44C404.769 366.307 404.963 366.253 405.163 366.28C405.363 366.307 405.529 366.393 405.663 366.54C405.983 366.913 406.403 367.2 406.923 367.4C407.456 367.6 408.043 367.7 408.683 367.7C409.669 367.7 410.383 367.533 410.823 367.2C411.263 366.853 411.489 366.44 411.503 365.96C411.503 365.48 411.276 365.087 410.823 364.78C410.369 364.46 409.623 364.213 408.583 364.04C407.236 363.827 406.249 363.453 405.623 362.92C404.996 362.387 404.683 361.753 404.683 361.02C404.683 360.34 404.863 359.773 405.223 359.32C405.583 358.867 406.063 358.527 406.663 358.3C407.263 358.073 407.923 357.96 408.643 357.96C409.536 357.96 410.303 358.113 410.943 358.42C411.596 358.727 412.123 359.14 412.523 359.66C412.656 359.833 412.709 360.013 412.683 360.2C412.656 360.387 412.549 360.54 412.363 360.66C412.203 360.753 412.016 360.787 411.803 360.76C411.603 360.72 411.429 360.62 411.283 360.46C410.949 360.073 410.563 359.793 410.123 359.62C409.683 359.433 409.176 359.34 408.603 359.34C407.869 359.34 407.283 359.493 406.843 359.8C406.403 360.093 406.183 360.467 406.183 360.92C406.183 361.227 406.263 361.493 406.423 361.72C406.596 361.947 406.883 362.147 407.283 362.32C407.696 362.493 408.269 362.64 409.003 362.76C410.003 362.92 410.789 363.16 411.363 363.48C411.949 363.787 412.363 364.153 412.603 364.58C412.856 364.993 412.983 365.447 412.983 365.94C412.983 366.567 412.796 367.12 412.423 367.6C412.063 368.067 411.556 368.433 410.903 368.7C410.263 368.967 409.523 369.1 408.683 369.1ZM416.744 369C416.504 369 416.31 368.933 416.164 368.8C416.03 368.653 415.964 368.46 415.964 368.22V358.84C415.964 358.6 416.03 358.413 416.164 358.28C416.31 358.133 416.504 358.06 416.744 358.06C416.97 358.06 417.15 358.133 417.284 358.28C417.43 358.413 417.504 358.6 417.504 358.84V368.22C417.504 368.46 417.43 368.653 417.284 368.8C417.15 368.933 416.97 369 416.744 369ZM416.724 355.98C416.43 355.98 416.177 355.873 415.964 355.66C415.75 355.447 415.644 355.187 415.644 354.88C415.644 354.547 415.75 354.287 415.964 354.1C416.19 353.9 416.45 353.8 416.744 353.8C417.024 353.8 417.27 353.9 417.484 354.1C417.71 354.287 417.824 354.547 417.824 354.88C417.824 355.187 417.717 355.447 417.504 355.66C417.29 355.873 417.03 355.98 416.724 355.98ZM426.965 369.1C425.925 369.1 424.985 368.86 424.145 368.38C423.318 367.9 422.658 367.247 422.165 366.42C421.685 365.58 421.438 364.64 421.425 363.6V354.16C421.425 353.92 421.492 353.733 421.625 353.6C421.772 353.453 421.965 353.38 422.205 353.38C422.432 353.38 422.612 353.453 422.745 353.6C422.892 353.733 422.965 353.92 422.965 354.16V360.04C423.405 359.413 423.985 358.913 424.705 358.54C425.438 358.153 426.252 357.96 427.145 357.96C428.172 357.96 429.092 358.207 429.905 358.7C430.718 359.18 431.358 359.84 431.825 360.68C432.305 361.52 432.545 362.467 432.545 363.52C432.545 364.587 432.298 365.54 431.805 366.38C431.325 367.22 430.665 367.887 429.825 368.38C428.985 368.86 428.032 369.1 426.965 369.1ZM426.965 367.7C427.738 367.7 428.432 367.52 429.045 367.16C429.658 366.787 430.138 366.287 430.485 365.66C430.845 365.033 431.025 364.32 431.025 363.52C431.025 362.733 430.845 362.027 430.485 361.4C430.138 360.76 429.658 360.26 429.045 359.9C428.432 359.54 427.738 359.36 426.965 359.36C426.205 359.36 425.518 359.54 424.905 359.9C424.292 360.26 423.812 360.76 423.465 361.4C423.118 362.027 422.945 362.733 422.945 363.52C422.945 364.32 423.118 365.033 423.465 365.66C423.812 366.287 424.292 366.787 424.905 367.16C425.518 367.52 426.205 367.7 426.965 367.7ZM437.926 369C437.392 369 436.912 368.853 436.486 368.56C436.072 368.267 435.746 367.86 435.506 367.34C435.279 366.82 435.166 366.22 435.166 365.54V354.14C435.166 353.913 435.232 353.733 435.366 353.6C435.512 353.453 435.699 353.38 435.926 353.38C436.152 353.38 436.332 353.453 436.466 353.6C436.612 353.733 436.686 353.913 436.686 354.14V365.54C436.686 366.113 436.799 366.58 437.026 366.94C437.266 367.3 437.566 367.48 437.926 367.48H438.426C438.626 367.48 438.786 367.553 438.906 367.7C439.026 367.833 439.086 368.013 439.086 368.24C439.086 368.467 438.999 368.653 438.826 368.8C438.666 368.933 438.452 369 438.186 369H437.926ZM445.565 369.1C444.485 369.1 443.525 368.867 442.685 368.4C441.858 367.92 441.205 367.26 440.725 366.42C440.258 365.58 440.025 364.62 440.025 363.54C440.025 362.447 440.245 361.487 440.685 360.66C441.138 359.82 441.758 359.16 442.545 358.68C443.331 358.2 444.238 357.96 445.265 357.96C446.278 357.96 447.158 358.193 447.905 358.66C448.665 359.113 449.251 359.747 449.665 360.56C450.078 361.373 450.285 362.3 450.285 363.34C450.285 363.553 450.218 363.727 450.085 363.86C449.951 363.98 449.778 364.04 449.565 364.04H441.065V362.76H449.725L448.865 363.38C448.878 362.607 448.738 361.913 448.445 361.3C448.151 360.687 447.731 360.207 447.185 359.86C446.651 359.513 446.011 359.34 445.265 359.34C444.505 359.34 443.838 359.52 443.265 359.88C442.691 360.24 442.245 360.74 441.925 361.38C441.618 362.007 441.465 362.727 441.465 363.54C441.465 364.353 441.638 365.073 441.985 365.7C442.345 366.327 442.831 366.82 443.445 367.18C444.058 367.54 444.765 367.72 445.565 367.72C446.045 367.72 446.525 367.64 447.005 367.48C447.498 367.307 447.891 367.093 448.185 366.84C448.331 366.72 448.498 366.66 448.685 366.66C448.871 366.647 449.031 366.693 449.165 366.8C449.338 366.96 449.425 367.133 449.425 367.32C449.438 367.507 449.365 367.667 449.205 367.8C448.765 368.173 448.205 368.487 447.525 368.74C446.845 368.98 446.191 369.1 445.565 369.1ZM462.569 369.1C461.783 369.1 461.003 368.967 460.229 368.7C459.456 368.433 458.829 368.033 458.349 367.5C458.203 367.34 458.143 367.16 458.169 366.96C458.196 366.76 458.296 366.587 458.469 366.44C458.656 366.307 458.849 366.253 459.049 366.28C459.249 366.307 459.416 366.393 459.549 366.54C459.869 366.913 460.289 367.2 460.809 367.4C461.343 367.6 461.929 367.7 462.569 367.7C463.556 367.7 464.269 367.533 464.709 367.2C465.149 366.853 465.376 366.44 465.389 365.96C465.389 365.48 465.163 365.087 464.709 364.78C464.256 364.46 463.509 364.213 462.469 364.04C461.123 363.827 460.136 363.453 459.509 362.92C458.883 362.387 458.569 361.753 458.569 361.02C458.569 360.34 458.749 359.773 459.109 359.32C459.469 358.867 459.949 358.527 460.549 358.3C461.149 358.073 461.809 357.96 462.529 357.96C463.423 357.96 464.189 358.113 464.829 358.42C465.483 358.727 466.009 359.14 466.409 359.66C466.543 359.833 466.596 360.013 466.569 360.2C466.543 360.387 466.436 360.54 466.249 360.66C466.089 360.753 465.903 360.787 465.689 360.76C465.489 360.72 465.316 360.62 465.169 360.46C464.836 360.073 464.449 359.793 464.009 359.62C463.569 359.433 463.063 359.34 462.489 359.34C461.756 359.34 461.169 359.493 460.729 359.8C460.289 360.093 460.069 360.467 460.069 360.92C460.069 361.227 460.149 361.493 460.309 361.72C460.483 361.947 460.769 362.147 461.169 362.32C461.583 362.493 462.156 362.64 462.889 362.76C463.889 362.92 464.676 363.16 465.249 363.48C465.836 363.787 466.249 364.153 466.489 364.58C466.743 364.993 466.869 365.447 466.869 365.94C466.869 366.567 466.683 367.12 466.309 367.6C465.949 368.067 465.443 368.433 464.789 368.7C464.149 368.967 463.409 369.1 462.569 369.1ZM474.49 369.1C473.41 369.1 472.45 368.867 471.61 368.4C470.784 367.92 470.13 367.26 469.65 366.42C469.184 365.58 468.95 364.62 468.95 363.54C468.95 362.447 469.17 361.487 469.61 360.66C470.064 359.82 470.684 359.16 471.47 358.68C472.257 358.2 473.164 357.96 474.19 357.96C475.204 357.96 476.084 358.193 476.83 358.66C477.59 359.113 478.177 359.747 478.59 360.56C479.004 361.373 479.21 362.3 479.21 363.34C479.21 363.553 479.144 363.727 479.01 363.86C478.877 363.98 478.704 364.04 478.49 364.04H469.99V362.76H478.65L477.79 363.38C477.804 362.607 477.664 361.913 477.37 361.3C477.077 360.687 476.657 360.207 476.11 359.86C475.577 359.513 474.937 359.34 474.19 359.34C473.43 359.34 472.764 359.52 472.19 359.88C471.617 360.24 471.17 360.74 470.85 361.38C470.544 362.007 470.39 362.727 470.39 363.54C470.39 364.353 470.564 365.073 470.91 365.7C471.27 366.327 471.757 366.82 472.37 367.18C472.984 367.54 473.69 367.72 474.49 367.72C474.97 367.72 475.45 367.64 475.93 367.48C476.424 367.307 476.817 367.093 477.11 366.84C477.257 366.72 477.424 366.66 477.61 366.66C477.797 366.647 477.957 366.693 478.09 366.8C478.264 366.96 478.35 367.133 478.35 367.32C478.364 367.507 478.29 367.667 478.13 367.8C477.69 368.173 477.13 368.487 476.45 368.74C475.77 368.98 475.117 369.1 474.49 369.1ZM486.096 369C485.389 369 484.756 368.833 484.196 368.5C483.649 368.167 483.216 367.713 482.896 367.14C482.576 366.553 482.416 365.887 482.416 365.14V355.36C482.416 355.133 482.482 354.947 482.616 354.8C482.762 354.653 482.949 354.58 483.176 354.58C483.402 354.58 483.589 354.653 483.736 354.8C483.882 354.947 483.956 355.133 483.956 355.36V365.14C483.956 365.82 484.156 366.38 484.556 366.82C484.956 367.247 485.469 367.46 486.096 367.46H486.636C486.849 367.46 487.022 367.533 487.156 367.68C487.289 367.827 487.356 368.013 487.356 368.24C487.356 368.467 487.276 368.653 487.116 368.8C486.956 368.933 486.756 369 486.516 369H486.096ZM481.116 359.8C480.916 359.8 480.749 359.74 480.616 359.62C480.482 359.487 480.416 359.327 480.416 359.14C480.416 358.94 480.482 358.78 480.616 358.66C480.749 358.527 480.916 358.46 481.116 358.46H486.216C486.416 358.46 486.582 358.527 486.716 358.66C486.849 358.78 486.916 358.94 486.916 359.14C486.916 359.327 486.849 359.487 486.716 359.62C486.582 359.74 486.416 359.8 486.216 359.8H481.116ZM500.702 369.1C499.635 369.1 498.682 368.86 497.842 368.38C497.002 367.9 496.342 367.24 495.862 366.4C495.382 365.56 495.142 364.607 495.142 363.54C495.142 362.46 495.382 361.5 495.862 360.66C496.342 359.82 497.002 359.16 497.842 358.68C498.682 358.2 499.635 357.96 500.702 357.96C501.769 357.96 502.715 358.2 503.542 358.68C504.382 359.16 505.042 359.82 505.522 360.66C506.002 361.5 506.249 362.46 506.262 363.54C506.262 364.607 506.015 365.56 505.522 366.4C505.042 367.24 504.382 367.9 503.542 368.38C502.715 368.86 501.769 369.1 500.702 369.1ZM500.702 367.7C501.475 367.7 502.169 367.52 502.782 367.16C503.395 366.8 503.875 366.307 504.222 365.68C504.569 365.053 504.742 364.34 504.742 363.54C504.742 362.74 504.569 362.027 504.222 361.4C503.875 360.76 503.395 360.26 502.782 359.9C502.169 359.54 501.475 359.36 500.702 359.36C499.929 359.36 499.235 359.54 498.622 359.9C498.009 360.26 497.522 360.76 497.162 361.4C496.815 362.027 496.642 362.74 496.642 363.54C496.642 364.34 496.815 365.053 497.162 365.68C497.522 366.307 498.009 366.8 498.622 367.16C499.235 367.52 499.929 367.7 500.702 367.7ZM510.617 369C510.417 369 510.244 368.933 510.097 368.8C509.95 368.653 509.877 368.46 509.877 368.22V358.08C509.877 357.147 510.037 356.327 510.357 355.62C510.677 354.913 511.15 354.367 511.777 353.98C512.404 353.58 513.17 353.38 514.077 353.38C514.304 353.38 514.49 353.447 514.637 353.58C514.784 353.713 514.857 353.88 514.857 354.08C514.857 354.28 514.784 354.447 514.637 354.58C514.49 354.713 514.304 354.78 514.077 354.78C513.477 354.78 512.977 354.92 512.577 355.2C512.19 355.467 511.897 355.847 511.697 356.34C511.51 356.82 511.417 357.373 511.417 358V368.22C511.417 368.46 511.344 368.653 511.197 368.8C511.064 368.933 510.87 369 510.617 369ZM508.597 359.8C508.384 359.8 508.21 359.74 508.077 359.62C507.957 359.487 507.897 359.327 507.897 359.14C507.897 358.94 507.957 358.78 508.077 358.66C508.21 358.527 508.384 358.46 508.597 358.46H513.817C514.03 358.46 514.197 358.527 514.317 358.66C514.45 358.78 514.517 358.94 514.517 359.14C514.517 359.327 514.45 359.487 514.317 359.62C514.197 359.74 514.03 359.8 513.817 359.8H508.597ZM523.081 362.26C523.121 361.433 523.334 360.693 523.721 360.04C524.121 359.387 524.634 358.873 525.261 358.5C525.901 358.127 526.607 357.94 527.381 357.94C527.994 357.94 528.467 358.027 528.801 358.2C529.134 358.373 529.261 358.627 529.181 358.96C529.127 359.16 529.034 359.293 528.901 359.36C528.781 359.427 528.627 359.453 528.441 359.44C528.267 359.427 528.067 359.413 527.841 359.4C527.094 359.333 526.427 359.413 525.841 359.64C525.267 359.853 524.807 360.187 524.461 360.64C524.127 361.093 523.961 361.633 523.961 362.26H523.081ZM523.201 369C522.961 369 522.774 368.933 522.641 368.8C522.507 368.667 522.441 368.48 522.441 368.24V358.82C522.441 358.58 522.507 358.393 522.641 358.26C522.774 358.127 522.961 358.06 523.201 358.06C523.441 358.06 523.627 358.127 523.761 358.26C523.894 358.393 523.961 358.58 523.961 358.82V368.24C523.961 368.48 523.894 368.667 523.761 368.8C523.627 368.933 523.441 369 523.201 369ZM536.361 369.12C535.414 369.12 534.567 368.927 533.821 368.54C533.074 368.14 532.481 367.56 532.041 366.8C531.614 366.04 531.401 365.113 531.401 364.02V358.82C531.401 358.607 531.474 358.427 531.621 358.28C531.767 358.133 531.947 358.06 532.161 358.06C532.387 358.06 532.574 358.133 532.721 358.28C532.867 358.427 532.941 358.607 532.941 358.82V364.02C532.941 364.847 533.094 365.527 533.401 366.06C533.721 366.593 534.147 366.993 534.681 367.26C535.227 367.527 535.841 367.66 536.521 367.66C537.174 367.66 537.761 367.533 538.281 367.28C538.814 367.027 539.234 366.68 539.541 366.24C539.847 365.8 540.001 365.3 540.001 364.74H541.101C541.061 365.58 540.827 366.333 540.401 367C539.987 367.653 539.427 368.173 538.721 368.56C538.014 368.933 537.227 369.12 536.361 369.12ZM540.761 369C540.534 369 540.347 368.933 540.201 368.8C540.067 368.653 540.001 368.46 540.001 368.22V358.82C540.001 358.593 540.067 358.413 540.201 358.28C540.347 358.133 540.534 358.06 540.761 358.06C540.987 358.06 541.174 358.133 541.321 358.28C541.467 358.413 541.541 358.593 541.541 358.82V368.22C541.541 368.46 541.467 368.653 541.321 368.8C541.174 368.933 540.987 369 540.761 369ZM547.496 369C546.963 369 546.483 368.853 546.056 368.56C545.643 368.267 545.316 367.86 545.076 367.34C544.849 366.82 544.736 366.22 544.736 365.54V354.14C544.736 353.913 544.803 353.733 544.936 353.6C545.083 353.453 545.269 353.38 545.496 353.38C545.723 353.38 545.903 353.453 546.036 353.6C546.183 353.733 546.256 353.913 546.256 354.14V365.54C546.256 366.113 546.369 366.58 546.596 366.94C546.836 367.3 547.136 367.48 547.496 367.48H547.996C548.196 367.48 548.356 367.553 548.476 367.7C548.596 367.833 548.656 368.013 548.656 368.24C548.656 368.467 548.569 368.653 548.396 368.8C548.236 368.933 548.023 369 547.756 369H547.496ZM555.135 369.1C554.055 369.1 553.095 368.867 552.255 368.4C551.428 367.92 550.775 367.26 550.295 366.42C549.828 365.58 549.595 364.62 549.595 363.54C549.595 362.447 549.815 361.487 550.255 360.66C550.708 359.82 551.328 359.16 552.115 358.68C552.902 358.2 553.808 357.96 554.835 357.96C555.848 357.96 556.728 358.193 557.475 358.66C558.235 359.113 558.822 359.747 559.235 360.56C559.648 361.373 559.855 362.3 559.855 363.34C559.855 363.553 559.788 363.727 559.655 363.86C559.522 363.98 559.348 364.04 559.135 364.04H550.635V362.76H559.295L558.435 363.38C558.448 362.607 558.308 361.913 558.015 361.3C557.722 360.687 557.302 360.207 556.755 359.86C556.222 359.513 555.582 359.34 554.835 359.34C554.075 359.34 553.408 359.52 552.835 359.88C552.262 360.24 551.815 360.74 551.495 361.38C551.188 362.007 551.035 362.727 551.035 363.54C551.035 364.353 551.208 365.073 551.555 365.7C551.915 366.327 552.402 366.82 553.015 367.18C553.628 367.54 554.335 367.72 555.135 367.72C555.615 367.72 556.095 367.64 556.575 367.48C557.068 367.307 557.462 367.093 557.755 366.84C557.902 366.72 558.068 366.66 558.255 366.66C558.442 366.647 558.602 366.693 558.735 366.8C558.908 366.96 558.995 367.133 558.995 367.32C559.008 367.507 558.935 367.667 558.775 367.8C558.335 368.173 557.775 368.487 557.095 368.74C556.415 368.98 555.762 369.1 555.135 369.1ZM566.28 369.1C565.493 369.1 564.713 368.967 563.94 368.7C563.167 368.433 562.54 368.033 562.06 367.5C561.913 367.34 561.853 367.16 561.88 366.96C561.907 366.76 562.007 366.587 562.18 366.44C562.367 366.307 562.56 366.253 562.76 366.28C562.96 366.307 563.127 366.393 563.26 366.54C563.58 366.913 564 367.2 564.52 367.4C565.053 367.6 565.64 367.7 566.28 367.7C567.267 367.7 567.98 367.533 568.42 367.2C568.86 366.853 569.087 366.44 569.1 365.96C569.1 365.48 568.873 365.087 568.42 364.78C567.967 364.46 567.22 364.213 566.18 364.04C564.833 363.827 563.847 363.453 563.22 362.92C562.593 362.387 562.28 361.753 562.28 361.02C562.28 360.34 562.46 359.773 562.82 359.32C563.18 358.867 563.66 358.527 564.26 358.3C564.86 358.073 565.52 357.96 566.24 357.96C567.133 357.96 567.9 358.113 568.54 358.42C569.193 358.727 569.72 359.14 570.12 359.66C570.253 359.833 570.307 360.013 570.28 360.2C570.253 360.387 570.147 360.54 569.96 360.66C569.8 360.753 569.613 360.787 569.4 360.76C569.2 360.72 569.027 360.62 568.88 360.46C568.547 360.073 568.16 359.793 567.72 359.62C567.28 359.433 566.773 359.34 566.2 359.34C565.467 359.34 564.88 359.493 564.44 359.8C564 360.093 563.78 360.467 563.78 360.92C563.78 361.227 563.86 361.493 564.02 361.72C564.193 361.947 564.48 362.147 564.88 362.32C565.293 362.493 565.867 362.64 566.6 362.76C567.6 362.92 568.387 363.16 568.96 363.48C569.547 363.787 569.96 364.153 570.2 364.58C570.453 364.993 570.58 365.447 570.58 365.94C570.58 366.567 570.393 367.12 570.02 367.6C569.66 368.067 569.153 368.433 568.5 368.7C567.86 368.967 567.12 369.1 566.28 369.1ZM581.581 369C581.407 369 581.254 368.953 581.121 368.86C580.987 368.767 580.894 368.647 580.841 368.5L577.721 359.14C577.641 358.807 577.647 358.547 577.741 358.36C577.834 358.16 578.021 358.06 578.301 358.06C578.474 358.06 578.627 358.107 578.761 358.2C578.894 358.293 578.994 358.44 579.061 358.64L581.841 367.14H581.401L583.981 358.66C584.034 358.487 584.121 358.347 584.241 358.24C584.374 358.12 584.541 358.06 584.741 358.06C584.941 358.06 585.101 358.113 585.221 358.22C585.354 358.327 585.447 358.473 585.501 358.66L587.961 366.94H587.621L590.341 358.64C590.474 358.253 590.721 358.06 591.081 358.06C591.374 358.06 591.574 358.173 591.681 358.4C591.787 358.613 591.787 358.86 591.681 359.14L588.561 368.5C588.507 368.647 588.414 368.767 588.281 368.86C588.161 368.953 588.014 369 587.841 369C587.667 369 587.507 368.953 587.361 368.86C587.227 368.767 587.141 368.647 587.101 368.5L584.581 360.14H584.821L582.301 368.5C582.247 368.66 582.154 368.787 582.021 368.88C581.887 368.96 581.741 369 581.581 369ZM594.685 364.54C594.445 364.54 594.252 364.467 594.105 364.32C593.972 364.173 593.905 363.987 593.905 363.76V354.16C593.905 353.92 593.972 353.733 594.105 353.6C594.252 353.453 594.445 353.38 594.685 353.38C594.912 353.38 595.092 353.453 595.225 353.6C595.372 353.733 595.445 353.92 595.445 354.16V363.76C595.445 363.987 595.372 364.173 595.225 364.32C595.092 364.467 594.912 364.54 594.685 364.54ZM603.285 369C603.059 369 602.872 368.927 602.725 368.78C602.579 368.633 602.505 368.453 602.505 368.24V363.04C602.505 362.213 602.345 361.533 602.025 361C601.719 360.467 601.292 360.067 600.745 359.8C600.212 359.533 599.605 359.4 598.925 359.4C598.272 359.4 597.679 359.527 597.145 359.78C596.625 360.033 596.212 360.38 595.905 360.82C595.599 361.26 595.445 361.76 595.445 362.32H594.345C594.372 361.48 594.599 360.733 595.025 360.08C595.452 359.413 596.019 358.893 596.725 358.52C597.432 358.133 598.219 357.94 599.085 357.94C600.032 357.94 600.879 358.14 601.625 358.54C602.372 358.927 602.959 359.5 603.385 360.26C603.825 361.02 604.045 361.947 604.045 363.04V368.24C604.045 368.453 603.972 368.633 603.825 368.78C603.679 368.927 603.499 369 603.285 369ZM594.685 369C594.445 369 594.252 368.933 594.105 368.8C593.972 368.653 593.905 368.467 593.905 368.24V358.84C593.905 358.6 593.972 358.413 594.105 358.28C594.252 358.133 594.445 358.06 594.685 358.06C594.912 358.06 595.092 358.133 595.225 358.28C595.372 358.413 595.445 358.6 595.445 358.84V368.24C595.445 368.467 595.372 368.653 595.225 368.8C595.092 368.933 594.912 369 594.685 369ZM608.541 369C608.301 369 608.107 368.933 607.961 368.8C607.827 368.653 607.761 368.46 607.761 368.22V358.84C607.761 358.6 607.827 358.413 607.961 358.28C608.107 358.133 608.301 358.06 608.541 358.06C608.767 358.06 608.947 358.133 609.081 358.28C609.227 358.413 609.301 358.6 609.301 358.84V368.22C609.301 368.46 609.227 368.653 609.081 368.8C608.947 368.933 608.767 369 608.541 369ZM608.521 355.98C608.227 355.98 607.974 355.873 607.761 355.66C607.547 355.447 607.441 355.187 607.441 354.88C607.441 354.547 607.547 354.287 607.761 354.1C607.987 353.9 608.247 353.8 608.541 353.8C608.821 353.8 609.067 353.9 609.281 354.1C609.507 354.287 609.621 354.547 609.621 354.88C609.621 355.187 609.514 355.447 609.301 355.66C609.087 355.873 608.827 355.98 608.521 355.98ZM618.102 369.1C617.049 369.1 616.109 368.86 615.282 368.38C614.469 367.887 613.822 367.22 613.342 366.38C612.875 365.54 612.642 364.593 612.642 363.54C612.642 362.473 612.869 361.52 613.322 360.68C613.775 359.84 614.395 359.18 615.182 358.7C615.969 358.207 616.875 357.96 617.902 357.96C618.715 357.96 619.462 358.12 620.142 358.44C620.835 358.76 621.442 359.24 621.962 359.88C622.109 360.04 622.162 360.213 622.122 360.4C622.082 360.573 621.969 360.727 621.782 360.86C621.635 360.967 621.469 361.007 621.282 360.98C621.109 360.94 620.955 360.84 620.822 360.68C620.049 359.8 619.075 359.36 617.902 359.36C617.155 359.36 616.495 359.54 615.922 359.9C615.362 360.26 614.922 360.753 614.602 361.38C614.295 362.007 614.142 362.727 614.142 363.54C614.142 364.34 614.309 365.053 614.642 365.68C614.975 366.307 615.442 366.8 616.042 367.16C616.642 367.52 617.329 367.7 618.102 367.7C618.622 367.7 619.095 367.633 619.522 367.5C619.962 367.353 620.349 367.133 620.682 366.84C620.842 366.707 621.009 366.633 621.182 366.62C621.355 366.607 621.515 366.66 621.662 366.78C621.822 366.927 621.909 367.093 621.922 367.28C621.949 367.467 621.889 367.627 621.742 367.76C620.769 368.653 619.555 369.1 618.102 369.1ZM625.896 364.54C625.656 364.54 625.463 364.467 625.316 364.32C625.183 364.173 625.116 363.987 625.116 363.76V354.16C625.116 353.92 625.183 353.733 625.316 353.6C625.463 353.453 625.656 353.38 625.896 353.38C626.123 353.38 626.303 353.453 626.436 353.6C626.583 353.733 626.656 353.92 626.656 354.16V363.76C626.656 363.987 626.583 364.173 626.436 364.32C626.303 364.467 626.123 364.54 625.896 364.54ZM634.496 369C634.27 369 634.083 368.927 633.936 368.78C633.79 368.633 633.716 368.453 633.716 368.24V363.04C633.716 362.213 633.556 361.533 633.236 361C632.93 360.467 632.503 360.067 631.956 359.8C631.423 359.533 630.816 359.4 630.136 359.4C629.483 359.4 628.89 359.527 628.356 359.78C627.836 360.033 627.423 360.38 627.116 360.82C626.81 361.26 626.656 361.76 626.656 362.32H625.556C625.583 361.48 625.81 360.733 626.236 360.08C626.663 359.413 627.23 358.893 627.936 358.52C628.643 358.133 629.43 357.94 630.296 357.94C631.243 357.94 632.09 358.14 632.836 358.54C633.583 358.927 634.17 359.5 634.596 360.26C635.036 361.02 635.256 361.947 635.256 363.04V368.24C635.256 368.453 635.183 368.633 635.036 368.78C634.89 368.927 634.71 369 634.496 369ZM625.896 369C625.656 369 625.463 368.933 625.316 368.8C625.183 368.653 625.116 368.467 625.116 368.24V358.84C625.116 358.6 625.183 358.413 625.316 358.28C625.463 358.133 625.656 358.06 625.896 358.06C626.123 358.06 626.303 358.133 626.436 358.28C626.583 358.413 626.656 358.6 626.656 358.84V368.24C626.656 368.467 626.583 368.653 626.436 368.8C626.303 368.933 626.123 369 625.896 369ZM646.871 369C646.338 369 645.858 368.853 645.431 368.56C645.018 368.267 644.691 367.86 644.451 367.34C644.224 366.82 644.111 366.22 644.111 365.54V354.14C644.111 353.913 644.178 353.733 644.311 353.6C644.458 353.453 644.644 353.38 644.871 353.38C645.098 353.38 645.278 353.453 645.411 353.6C645.558 353.733 645.631 353.913 645.631 354.14V365.54C645.631 366.113 645.744 366.58 645.971 366.94C646.211 367.3 646.511 367.48 646.871 367.48H647.371C647.571 367.48 647.731 367.553 647.851 367.7C647.971 367.833 648.031 368.013 648.031 368.24C648.031 368.467 647.944 368.653 647.771 368.8C647.611 368.933 647.398 369 647.131 369H646.871ZM651.255 369C651.015 369 650.822 368.933 650.675 368.8C650.542 368.653 650.475 368.46 650.475 368.22V358.84C650.475 358.6 650.542 358.413 650.675 358.28C650.822 358.133 651.015 358.06 651.255 358.06C651.482 358.06 651.662 358.133 651.795 358.28C651.942 358.413 652.015 358.6 652.015 358.84V368.22C652.015 368.46 651.942 368.653 651.795 368.8C651.662 368.933 651.482 369 651.255 369ZM651.235 355.98C650.942 355.98 650.689 355.873 650.475 355.66C650.262 355.447 650.155 355.187 650.155 354.88C650.155 354.547 650.262 354.287 650.475 354.1C650.702 353.9 650.962 353.8 651.255 353.8C651.535 353.8 651.782 353.9 651.995 354.1C652.222 354.287 652.335 354.547 652.335 354.88C652.335 355.187 652.229 355.447 652.015 355.66C651.802 355.873 651.542 355.98 651.235 355.98ZM665.317 369C665.09 369 664.903 368.927 664.757 368.78C664.61 368.633 664.537 368.453 664.537 368.24V363.04C664.537 362.213 664.377 361.533 664.057 361C663.75 360.467 663.323 360.067 662.777 359.8C662.243 359.533 661.637 359.4 660.957 359.4C660.303 359.4 659.71 359.527 659.177 359.78C658.657 360.033 658.243 360.38 657.937 360.82C657.63 361.26 657.477 361.76 657.477 362.32H656.377C656.403 361.48 656.63 360.733 657.057 360.08C657.483 359.413 658.05 358.893 658.757 358.52C659.463 358.133 660.25 357.94 661.117 357.94C662.063 357.94 662.91 358.14 663.657 358.54C664.403 358.927 664.99 359.5 665.417 360.26C665.857 361.02 666.077 361.947 666.077 363.04V368.24C666.077 368.453 666.003 368.633 665.857 368.78C665.71 368.927 665.53 369 665.317 369ZM656.717 369C656.477 369 656.283 368.933 656.137 368.8C656.003 368.653 655.937 368.467 655.937 368.24V358.84C655.937 358.6 656.003 358.413 656.137 358.28C656.283 358.133 656.477 358.06 656.717 358.06C656.943 358.06 657.123 358.133 657.257 358.28C657.403 358.413 657.477 358.6 657.477 358.84V368.24C657.477 368.467 657.403 368.653 657.257 368.8C657.123 368.933 656.943 369 656.717 369ZM673.752 369C673.045 369 672.412 368.833 671.852 368.5C671.305 368.167 670.872 367.713 670.552 367.14C670.232 366.553 670.072 365.887 670.072 365.14V355.36C670.072 355.133 670.139 354.947 670.272 354.8C670.419 354.653 670.605 354.58 670.832 354.58C671.059 354.58 671.245 354.653 671.392 354.8C671.539 354.947 671.612 355.133 671.612 355.36V365.14C671.612 365.82 671.812 366.38 672.212 366.82C672.612 367.247 673.125 367.46 673.752 367.46H674.292C674.505 367.46 674.679 367.533 674.812 367.68C674.945 367.827 675.012 368.013 675.012 368.24C675.012 368.467 674.932 368.653 674.772 368.8C674.612 368.933 674.412 369 674.172 369H673.752ZM668.772 359.8C668.572 359.8 668.405 359.74 668.272 359.62C668.139 359.487 668.072 359.327 668.072 359.14C668.072 358.94 668.139 358.78 668.272 358.66C668.405 358.527 668.572 358.46 668.772 358.46H673.872C674.072 358.46 674.239 358.527 674.372 358.66C674.505 358.78 674.572 358.94 674.572 359.14C674.572 359.327 674.505 359.487 674.372 359.62C674.239 359.74 674.072 359.8 673.872 359.8H668.772ZM684.738 369C684.538 369 684.365 368.933 684.218 368.8C684.071 368.653 683.998 368.46 683.998 368.22V358.08C683.998 357.147 684.158 356.327 684.478 355.62C684.798 354.913 685.271 354.367 685.898 353.98C686.525 353.58 687.291 353.38 688.198 353.38C688.425 353.38 688.611 353.447 688.758 353.58C688.905 353.713 688.978 353.88 688.978 354.08C688.978 354.28 688.905 354.447 688.758 354.58C688.611 354.713 688.425 354.78 688.198 354.78C687.598 354.78 687.098 354.92 686.698 355.2C686.311 355.467 686.018 355.847 685.818 356.34C685.631 356.82 685.538 357.373 685.538 358V368.22C685.538 368.46 685.465 368.653 685.318 368.8C685.185 368.933 684.991 369 684.738 369ZM682.718 359.8C682.505 359.8 682.331 359.74 682.198 359.62C682.078 359.487 682.018 359.327 682.018 359.14C682.018 358.94 682.078 358.78 682.198 358.66C682.331 358.527 682.505 358.46 682.718 358.46H687.938C688.151 358.46 688.318 358.527 688.438 358.66C688.571 358.78 688.638 358.94 688.638 359.14C688.638 359.327 688.571 359.487 688.438 359.62C688.318 359.74 688.151 359.8 687.938 359.8H682.718ZM695.292 369.1C694.225 369.1 693.272 368.86 692.432 368.38C691.592 367.9 690.932 367.24 690.452 366.4C689.972 365.56 689.732 364.607 689.732 363.54C689.732 362.46 689.972 361.5 690.452 360.66C690.932 359.82 691.592 359.16 692.432 358.68C693.272 358.2 694.225 357.96 695.292 357.96C696.358 357.96 697.305 358.2 698.132 358.68C698.972 359.16 699.632 359.82 700.112 360.66C700.592 361.5 700.838 362.46 700.852 363.54C700.852 364.607 700.605 365.56 700.112 366.4C699.632 367.24 698.972 367.9 698.132 368.38C697.305 368.86 696.358 369.1 695.292 369.1ZM695.292 367.7C696.065 367.7 696.758 367.52 697.372 367.16C697.985 366.8 698.465 366.307 698.812 365.68C699.158 365.053 699.332 364.34 699.332 363.54C699.332 362.74 699.158 362.027 698.812 361.4C698.465 360.76 697.985 360.26 697.372 359.9C696.758 359.54 696.065 359.36 695.292 359.36C694.518 359.36 693.825 359.54 693.212 359.9C692.598 360.26 692.112 360.76 691.752 361.4C691.405 362.027 691.232 362.74 691.232 363.54C691.232 364.34 691.405 365.053 691.752 365.68C692.112 366.307 692.598 366.8 693.212 367.16C693.825 367.52 694.518 367.7 695.292 367.7ZM704.487 362.26C704.527 361.433 704.74 360.693 705.127 360.04C705.527 359.387 706.04 358.873 706.667 358.5C707.307 358.127 708.014 357.94 708.787 357.94C709.4 357.94 709.874 358.027 710.207 358.2C710.54 358.373 710.667 358.627 710.587 358.96C710.534 359.16 710.44 359.293 710.307 359.36C710.187 359.427 710.034 359.453 709.847 359.44C709.674 359.427 709.474 359.413 709.247 359.4C708.5 359.333 707.834 359.413 707.247 359.64C706.674 359.853 706.214 360.187 705.867 360.64C705.534 361.093 705.367 361.633 705.367 362.26H704.487ZM704.607 369C704.367 369 704.18 368.933 704.047 368.8C703.914 368.667 703.847 368.48 703.847 368.24V358.82C703.847 358.58 703.914 358.393 704.047 358.26C704.18 358.127 704.367 358.06 704.607 358.06C704.847 358.06 705.034 358.127 705.167 358.26C705.3 358.393 705.367 358.58 705.367 358.82V368.24C705.367 368.48 705.3 368.667 705.167 368.8C705.034 368.933 704.847 369 704.607 369ZM721.346 369C721.173 369 721.02 368.953 720.886 368.86C720.753 368.767 720.66 368.647 720.606 368.5L717.486 359.14C717.406 358.807 717.413 358.547 717.506 358.36C717.6 358.16 717.786 358.06 718.066 358.06C718.24 358.06 718.393 358.107 718.526 358.2C718.66 358.293 718.76 358.44 718.826 358.64L721.606 367.14H721.166L723.746 358.66C723.8 358.487 723.886 358.347 724.006 358.24C724.14 358.12 724.306 358.06 724.506 358.06C724.706 358.06 724.866 358.113 724.986 358.22C725.12 358.327 725.213 358.473 725.266 358.66L727.726 366.94H727.386L730.106 358.64C730.24 358.253 730.486 358.06 730.846 358.06C731.14 358.06 731.34 358.173 731.446 358.4C731.553 358.613 731.553 358.86 731.446 359.14L728.326 368.5C728.273 368.647 728.18 368.767 728.046 368.86C727.926 368.953 727.78 369 727.606 369C727.433 369 727.273 368.953 727.126 368.86C726.993 368.767 726.906 368.647 726.866 368.5L724.346 360.14H724.586L722.066 368.5C722.013 368.66 721.92 368.787 721.786 368.88C721.653 368.96 721.506 369 721.346 369ZM738.24 369.1C737.16 369.1 736.2 368.867 735.36 368.4C734.534 367.92 733.88 367.26 733.4 366.42C732.934 365.58 732.7 364.62 732.7 363.54C732.7 362.447 732.92 361.487 733.36 360.66C733.814 359.82 734.434 359.16 735.22 358.68C736.007 358.2 736.914 357.96 737.94 357.96C738.954 357.96 739.834 358.193 740.58 358.66C741.34 359.113 741.927 359.747 742.34 360.56C742.754 361.373 742.96 362.3 742.96 363.34C742.96 363.553 742.894 363.727 742.76 363.86C742.627 363.98 742.454 364.04 742.24 364.04H733.74V362.76H742.4L741.54 363.38C741.554 362.607 741.414 361.913 741.12 361.3C740.827 360.687 740.407 360.207 739.86 359.86C739.327 359.513 738.687 359.34 737.94 359.34C737.18 359.34 736.514 359.52 735.94 359.88C735.367 360.24 734.92 360.74 734.6 361.38C734.294 362.007 734.14 362.727 734.14 363.54C734.14 364.353 734.314 365.073 734.66 365.7C735.02 366.327 735.507 366.82 736.12 367.18C736.734 367.54 737.44 367.72 738.24 367.72C738.72 367.72 739.2 367.64 739.68 367.48C740.174 367.307 740.567 367.093 740.86 366.84C741.007 366.72 741.174 366.66 741.36 366.66C741.547 366.647 741.707 366.693 741.84 366.8C742.014 366.96 742.1 367.133 742.1 367.32C742.114 367.507 742.04 367.667 741.88 367.8C741.44 368.173 740.88 368.487 740.2 368.74C739.52 368.98 738.867 369.1 738.24 369.1ZM747.926 369C747.392 369 746.912 368.853 746.486 368.56C746.072 368.267 745.746 367.86 745.506 367.34C745.279 366.82 745.166 366.22 745.166 365.54V354.14C745.166 353.913 745.232 353.733 745.366 353.6C745.512 353.453 745.699 353.38 745.926 353.38C746.152 353.38 746.332 353.453 746.466 353.6C746.612 353.733 746.686 353.913 746.686 354.14V365.54C746.686 366.113 746.799 366.58 747.026 366.94C747.266 367.3 747.566 367.48 747.926 367.48H748.426C748.626 367.48 748.786 367.553 748.906 367.7C749.026 367.833 749.086 368.013 749.086 368.24C749.086 368.467 748.999 368.653 748.826 368.8C748.666 368.933 748.452 369 748.186 369H747.926ZM753.57 369C753.037 369 752.557 368.853 752.13 368.56C751.717 368.267 751.39 367.86 751.15 367.34C750.923 366.82 750.81 366.22 750.81 365.54V354.14C750.81 353.913 750.877 353.733 751.01 353.6C751.157 353.453 751.343 353.38 751.57 353.38C751.797 353.38 751.977 353.453 752.11 353.6C752.257 353.733 752.33 353.913 752.33 354.14V365.54C752.33 366.113 752.443 366.58 752.67 366.94C752.91 367.3 753.21 367.48 753.57 367.48H754.07C754.27 367.48 754.43 367.553 754.55 367.7C754.67 367.833 754.73 368.013 754.73 368.24C754.73 368.467 754.643 368.653 754.47 368.8C754.31 368.933 754.097 369 753.83 369H753.57ZM756.575 364.3C756.361 364.3 756.181 364.227 756.035 364.08C755.888 363.933 755.815 363.753 755.815 363.54C755.815 363.313 755.888 363.127 756.035 362.98C756.181 362.833 756.361 362.76 756.575 362.76H761.275C761.501 362.76 761.688 362.833 761.835 362.98C761.981 363.127 762.055 363.313 762.055 363.54C762.055 363.753 761.981 363.933 761.835 364.08C761.688 364.227 761.501 364.3 761.275 364.3H756.575ZM765.927 365.34L764.987 364.32L771.827 358.14C771.987 357.993 772.154 357.927 772.327 357.94C772.501 357.94 772.661 358.02 772.807 358.18C772.954 358.34 773.021 358.513 773.007 358.7C773.007 358.873 772.927 359.027 772.767 359.16L765.927 365.34ZM765.427 369C765.201 369 765.014 368.933 764.867 368.8C764.734 368.653 764.667 368.467 764.667 368.24V354.14C764.667 353.913 764.734 353.733 764.867 353.6C765.014 353.453 765.201 353.38 765.427 353.38C765.654 353.38 765.834 353.453 765.967 353.6C766.114 353.733 766.187 353.913 766.187 354.14V368.24C766.187 368.467 766.114 368.653 765.967 368.8C765.834 368.933 765.654 369 765.427 369ZM772.827 368.9C772.654 369.047 772.474 369.107 772.287 369.08C772.101 369.067 771.941 368.973 771.807 368.8L767.347 363.32L768.427 362.36L772.927 367.9C773.061 368.06 773.121 368.233 773.107 368.42C773.094 368.593 773.001 368.753 772.827 368.9ZM785.493 369C785.266 369 785.079 368.927 784.933 368.78C784.786 368.633 784.713 368.453 784.713 368.24V363.04C784.713 362.213 784.553 361.533 784.233 361C783.926 360.467 783.499 360.067 782.953 359.8C782.419 359.533 781.813 359.4 781.133 359.4C780.479 359.4 779.886 359.527 779.353 359.78C778.833 360.033 778.419 360.38 778.113 360.82C777.806 361.26 777.653 361.76 777.653 362.32H776.553C776.579 361.48 776.806 360.733 777.233 360.08C777.659 359.413 778.226 358.893 778.933 358.52C779.639 358.133 780.426 357.94 781.293 357.94C782.239 357.94 783.086 358.14 783.833 358.54C784.579 358.927 785.166 359.5 785.593 360.26C786.033 361.02 786.253 361.947 786.253 363.04V368.24C786.253 368.453 786.179 368.633 786.033 368.78C785.886 368.927 785.706 369 785.493 369ZM776.893 369C776.653 369 776.459 368.933 776.313 368.8C776.179 368.653 776.113 368.467 776.113 368.24V358.84C776.113 358.6 776.179 358.413 776.313 358.28C776.459 358.133 776.653 358.06 776.893 358.06C777.119 358.06 777.299 358.133 777.433 358.28C777.579 358.413 777.653 358.6 777.653 358.84V368.24C777.653 368.467 777.579 368.653 777.433 368.8C777.299 368.933 777.119 369 776.893 369ZM794.628 369.1C793.561 369.1 792.608 368.86 791.768 368.38C790.928 367.9 790.268 367.24 789.788 366.4C789.308 365.56 789.068 364.607 789.068 363.54C789.068 362.46 789.308 361.5 789.788 360.66C790.268 359.82 790.928 359.16 791.768 358.68C792.608 358.2 793.561 357.96 794.628 357.96C795.694 357.96 796.641 358.2 797.468 358.68C798.308 359.16 798.968 359.82 799.448 360.66C799.928 361.5 800.174 362.46 800.188 363.54C800.188 364.607 799.941 365.56 799.448 366.4C798.968 367.24 798.308 367.9 797.468 368.38C796.641 368.86 795.694 369.1 794.628 369.1ZM794.628 367.7C795.401 367.7 796.094 367.52 796.708 367.16C797.321 366.8 797.801 366.307 798.148 365.68C798.494 365.053 798.668 364.34 798.668 363.54C798.668 362.74 798.494 362.027 798.148 361.4C797.801 360.76 797.321 360.26 796.708 359.9C796.094 359.54 795.401 359.36 794.628 359.36C793.854 359.36 793.161 359.54 792.548 359.9C791.934 360.26 791.448 360.76 791.088 361.4C790.741 362.027 790.568 362.74 790.568 363.54C790.568 364.34 790.741 365.053 791.088 365.68C791.448 366.307 791.934 366.8 792.548 367.16C793.161 367.52 793.854 367.7 794.628 367.7ZM805.057 369C804.884 369 804.731 368.953 804.597 368.86C804.464 368.767 804.371 368.647 804.317 368.5L801.197 359.14C801.117 358.807 801.124 358.547 801.217 358.36C801.311 358.16 801.497 358.06 801.777 358.06C801.951 358.06 802.104 358.107 802.237 358.2C802.371 358.293 802.471 358.44 802.537 358.64L805.317 367.14H804.877L807.457 358.66C807.511 358.487 807.597 358.347 807.717 358.24C807.851 358.12 808.017 358.06 808.217 358.06C808.417 358.06 808.577 358.113 808.697 358.22C808.831 358.327 808.924 358.473 808.977 358.66L811.437 366.94H811.097L813.817 358.64C813.951 358.253 814.197 358.06 814.557 358.06C814.851 358.06 815.051 358.173 815.157 358.4C815.264 358.613 815.264 358.86 815.157 359.14L812.037 368.5C811.984 368.647 811.891 368.767 811.757 368.86C811.637 368.953 811.491 369 811.317 369C811.144 369 810.984 368.953 810.837 368.86C810.704 368.767 810.617 368.647 810.577 368.5L808.057 360.14H808.297L805.777 368.5C805.724 368.66 805.631 368.787 805.497 368.88C805.364 368.96 805.217 369 805.057 369ZM826.762 369C826.535 369 826.349 368.927 826.202 368.78C826.055 368.633 825.982 368.453 825.982 368.24V363.04C825.982 362.213 825.822 361.533 825.502 361C825.195 360.467 824.769 360.067 824.222 359.8C823.689 359.533 823.082 359.4 822.402 359.4C821.749 359.4 821.155 359.527 820.622 359.78C820.102 360.033 819.689 360.38 819.382 360.82C819.075 361.26 818.922 361.76 818.922 362.32H817.822C817.849 361.48 818.075 360.733 818.502 360.08C818.929 359.413 819.495 358.893 820.202 358.52C820.909 358.133 821.695 357.94 822.562 357.94C823.509 357.94 824.355 358.14 825.102 358.54C825.849 358.927 826.435 359.5 826.862 360.26C827.302 361.02 827.522 361.947 827.522 363.04V368.24C827.522 368.453 827.449 368.633 827.302 368.78C827.155 368.927 826.975 369 826.762 369ZM818.162 369C817.922 369 817.729 368.933 817.582 368.8C817.449 368.653 817.382 368.467 817.382 368.24V358.84C817.382 358.6 817.449 358.413 817.582 358.28C817.729 358.133 817.922 358.06 818.162 358.06C818.389 358.06 818.569 358.133 818.702 358.28C818.849 358.413 818.922 358.6 818.922 358.84V368.24C818.922 368.467 818.849 368.653 818.702 368.8C818.569 368.933 818.389 369 818.162 369ZM842.317 369.1C841.277 369.1 840.337 368.86 839.497 368.38C838.67 367.9 838.01 367.247 837.517 366.42C837.037 365.58 836.79 364.64 836.777 363.6V354.16C836.777 353.92 836.843 353.733 836.977 353.6C837.123 353.453 837.317 353.38 837.557 353.38C837.783 353.38 837.963 353.453 838.097 353.6C838.243 353.733 838.317 353.92 838.317 354.16V360.04C838.757 359.413 839.337 358.913 840.057 358.54C840.79 358.153 841.603 357.96 842.497 357.96C843.523 357.96 844.443 358.207 845.257 358.7C846.07 359.18 846.71 359.84 847.177 360.68C847.657 361.52 847.897 362.467 847.897 363.52C847.897 364.587 847.65 365.54 847.157 366.38C846.677 367.22 846.017 367.887 845.177 368.38C844.337 368.86 843.383 369.1 842.317 369.1ZM842.317 367.7C843.09 367.7 843.783 367.52 844.397 367.16C845.01 366.787 845.49 366.287 845.837 365.66C846.197 365.033 846.377 364.32 846.377 363.52C846.377 362.733 846.197 362.027 845.837 361.4C845.49 360.76 845.01 360.26 844.397 359.9C843.783 359.54 843.09 359.36 842.317 359.36C841.557 359.36 840.87 359.54 840.257 359.9C839.643 360.26 839.163 360.76 838.817 361.4C838.47 362.027 838.297 362.733 838.297 363.52C838.297 364.32 838.47 365.033 838.817 365.66C839.163 366.287 839.643 366.787 840.257 367.16C840.87 367.52 841.557 367.7 842.317 367.7ZM855.877 369.1C854.797 369.1 853.837 368.867 852.997 368.4C852.171 367.92 851.517 367.26 851.037 366.42C850.571 365.58 850.337 364.62 850.337 363.54C850.337 362.447 850.557 361.487 850.997 360.66C851.451 359.82 852.071 359.16 852.857 358.68C853.644 358.2 854.551 357.96 855.577 357.96C856.591 357.96 857.471 358.193 858.217 358.66C858.977 359.113 859.564 359.747 859.977 360.56C860.391 361.373 860.597 362.3 860.597 363.34C860.597 363.553 860.531 363.727 860.397 363.86C860.264 363.98 860.091 364.04 859.877 364.04H851.377V362.76H860.037L859.177 363.38C859.191 362.607 859.051 361.913 858.757 361.3C858.464 360.687 858.044 360.207 857.497 359.86C856.964 359.513 856.324 359.34 855.577 359.34C854.817 359.34 854.151 359.52 853.577 359.88C853.004 360.24 852.557 360.74 852.237 361.38C851.931 362.007 851.777 362.727 851.777 363.54C851.777 364.353 851.951 365.073 852.297 365.7C852.657 366.327 853.144 366.82 853.757 367.18C854.371 367.54 855.077 367.72 855.877 367.72C856.357 367.72 856.837 367.64 857.317 367.48C857.811 367.307 858.204 367.093 858.497 366.84C858.644 366.72 858.811 366.66 858.997 366.66C859.184 366.647 859.344 366.693 859.477 366.8C859.651 366.96 859.737 367.133 859.737 367.32C859.751 367.507 859.677 367.667 859.517 367.8C859.077 368.173 858.517 368.487 857.837 368.74C857.157 368.98 856.504 369.1 855.877 369.1ZM867.022 369.1C866.236 369.1 865.456 368.967 864.682 368.7C863.909 368.433 863.282 368.033 862.802 367.5C862.656 367.34 862.596 367.16 862.622 366.96C862.649 366.76 862.749 366.587 862.922 366.44C863.109 366.307 863.302 366.253 863.502 366.28C863.702 366.307 863.869 366.393 864.002 366.54C864.322 366.913 864.742 367.2 865.262 367.4C865.796 367.6 866.382 367.7 867.022 367.7C868.009 367.7 868.722 367.533 869.162 367.2C869.602 366.853 869.829 366.44 869.842 365.96C869.842 365.48 869.616 365.087 869.162 364.78C868.709 364.46 867.962 364.213 866.922 364.04C865.576 363.827 864.589 363.453 863.962 362.92C863.336 362.387 863.022 361.753 863.022 361.02C863.022 360.34 863.202 359.773 863.562 359.32C863.922 358.867 864.402 358.527 865.002 358.3C865.602 358.073 866.262 357.96 866.982 357.96C867.876 357.96 868.642 358.113 869.282 358.42C869.936 358.727 870.462 359.14 870.862 359.66C870.996 359.833 871.049 360.013 871.022 360.2C870.996 360.387 870.889 360.54 870.702 360.66C870.542 360.753 870.356 360.787 870.142 360.76C869.942 360.72 869.769 360.62 869.622 360.46C869.289 360.073 868.902 359.793 868.462 359.62C868.022 359.433 867.516 359.34 866.942 359.34C866.209 359.34 865.622 359.493 865.182 359.8C864.742 360.093 864.522 360.467 864.522 360.92C864.522 361.227 864.602 361.493 864.762 361.72C864.936 361.947 865.222 362.147 865.622 362.32C866.036 362.493 866.609 362.64 867.342 362.76C868.342 362.92 869.129 363.16 869.702 363.48C870.289 363.787 870.702 364.153 870.942 364.58C871.196 364.993 871.322 365.447 871.322 365.94C871.322 366.567 871.136 367.12 870.762 367.6C870.402 368.067 869.896 368.433 869.242 368.7C868.602 368.967 867.862 369.1 867.022 369.1ZM878.264 369C877.557 369 876.924 368.833 876.364 368.5C875.817 368.167 875.384 367.713 875.064 367.14C874.744 366.553 874.584 365.887 874.584 365.14V355.36C874.584 355.133 874.65 354.947 874.784 354.8C874.93 354.653 875.117 354.58 875.344 354.58C875.57 354.58 875.757 354.653 875.904 354.8C876.05 354.947 876.124 355.133 876.124 355.36V365.14C876.124 365.82 876.324 366.38 876.724 366.82C877.124 367.247 877.637 367.46 878.264 367.46H878.804C879.017 367.46 879.19 367.533 879.324 367.68C879.457 367.827 879.524 368.013 879.524 368.24C879.524 368.467 879.444 368.653 879.284 368.8C879.124 368.933 878.924 369 878.684 369H878.264ZM873.284 359.8C873.084 359.8 872.917 359.74 872.784 359.62C872.65 359.487 872.584 359.327 872.584 359.14C872.584 358.94 872.65 358.78 872.784 358.66C872.917 358.527 873.084 358.46 873.284 358.46H878.384C878.584 358.46 878.75 358.527 878.884 358.66C879.017 358.78 879.084 358.94 879.084 359.14C879.084 359.327 879.017 359.487 878.884 359.62C878.75 359.74 878.584 359.8 878.384 359.8H873.284ZM881.75 364.3C881.537 364.3 881.357 364.227 881.21 364.08C881.064 363.933 880.99 363.753 880.99 363.54C880.99 363.313 881.064 363.127 881.21 362.98C881.357 362.833 881.537 362.76 881.75 362.76H886.45C886.677 362.76 886.864 362.833 887.01 362.98C887.157 363.127 887.23 363.313 887.23 363.54C887.23 363.753 887.157 363.933 887.01 364.08C886.864 364.227 886.677 364.3 886.45 364.3H881.75ZM890.623 373.68C890.383 373.68 890.19 373.607 890.043 373.46C889.91 373.327 889.843 373.14 889.843 372.9V363.46C889.856 362.42 890.103 361.487 890.583 360.66C891.076 359.82 891.736 359.16 892.563 358.68C893.403 358.2 894.343 357.96 895.383 357.96C896.45 357.96 897.403 358.207 898.243 358.7C899.083 359.18 899.743 359.84 900.223 360.68C900.716 361.52 900.963 362.473 900.963 363.54C900.963 364.593 900.723 365.54 900.243 366.38C899.776 367.22 899.136 367.887 898.323 368.38C897.51 368.86 896.59 369.1 895.563 369.1C894.67 369.1 893.856 368.913 893.123 368.54C892.403 368.153 891.823 367.647 891.383 367.02V372.9C891.383 373.14 891.31 373.327 891.163 373.46C891.03 373.607 890.85 373.68 890.623 373.68ZM895.383 367.7C896.156 367.7 896.85 367.52 897.463 367.16C898.076 366.8 898.556 366.307 898.903 365.68C899.263 365.04 899.443 364.327 899.443 363.54C899.443 362.74 899.263 362.027 898.903 361.4C898.556 360.773 898.076 360.28 897.463 359.92C896.85 359.547 896.156 359.36 895.383 359.36C894.623 359.36 893.936 359.547 893.323 359.92C892.71 360.28 892.23 360.773 891.883 361.4C891.536 362.027 891.363 362.74 891.363 363.54C891.363 364.327 891.536 365.04 891.883 365.68C892.23 366.307 892.71 366.8 893.323 367.16C893.936 367.52 894.623 367.7 895.383 367.7ZM904.624 362.26C904.664 361.433 904.877 360.693 905.264 360.04C905.664 359.387 906.177 358.873 906.804 358.5C907.444 358.127 908.15 357.94 908.924 357.94C909.537 357.94 910.01 358.027 910.344 358.2C910.677 358.373 910.804 358.627 910.724 358.96C910.67 359.16 910.577 359.293 910.444 359.36C910.324 359.427 910.17 359.453 909.984 359.44C909.81 359.427 909.61 359.413 909.384 359.4C908.637 359.333 907.97 359.413 907.384 359.64C906.81 359.853 906.35 360.187 906.004 360.64C905.67 361.093 905.504 361.633 905.504 362.26H904.624ZM904.744 369C904.504 369 904.317 368.933 904.184 368.8C904.05 368.667 903.984 368.48 903.984 368.24V358.82C903.984 358.58 904.05 358.393 904.184 358.26C904.317 358.127 904.504 358.06 904.744 358.06C904.984 358.06 905.17 358.127 905.304 358.26C905.437 358.393 905.504 358.58 905.504 358.82V368.24C905.504 368.48 905.437 368.667 905.304 368.8C905.17 368.933 904.984 369 904.744 369ZM917.163 369.1C916.136 369.1 915.216 368.86 914.403 368.38C913.59 367.887 912.943 367.22 912.463 366.38C911.996 365.54 911.763 364.593 911.763 363.54C911.763 362.473 912.003 361.52 912.483 360.68C912.976 359.84 913.643 359.18 914.483 358.7C915.323 358.207 916.27 357.96 917.323 357.96C918.376 357.96 919.316 358.207 920.143 358.7C920.983 359.18 921.643 359.84 922.123 360.68C922.616 361.52 922.87 362.473 922.883 363.54L922.263 364.02C922.263 364.98 922.036 365.847 921.583 366.62C921.143 367.38 920.536 367.987 919.763 368.44C919.003 368.88 918.136 369.1 917.163 369.1ZM917.323 367.7C918.096 367.7 918.783 367.52 919.383 367.16C919.996 366.8 920.476 366.307 920.823 365.68C921.183 365.04 921.363 364.327 921.363 363.54C921.363 362.74 921.183 362.027 920.823 361.4C920.476 360.773 919.996 360.28 919.383 359.92C918.783 359.547 918.096 359.36 917.323 359.36C916.563 359.36 915.876 359.547 915.263 359.92C914.65 360.28 914.163 360.773 913.803 361.4C913.443 362.027 913.263 362.74 913.263 363.54C913.263 364.327 913.443 365.04 913.803 365.68C914.163 366.307 914.65 366.8 915.263 367.16C915.876 367.52 916.563 367.7 917.323 367.7ZM922.103 369C921.876 369 921.69 368.933 921.543 368.8C921.396 368.653 921.323 368.467 921.323 368.24V364.82L921.703 363.24L922.883 363.54V368.24C922.883 368.467 922.81 368.653 922.663 368.8C922.516 368.933 922.33 369 922.103 369ZM930.758 369.1C929.705 369.1 928.765 368.86 927.938 368.38C927.125 367.887 926.478 367.22 925.998 366.38C925.531 365.54 925.298 364.593 925.298 363.54C925.298 362.473 925.525 361.52 925.978 360.68C926.431 359.84 927.051 359.18 927.838 358.7C928.625 358.207 929.531 357.96 930.558 357.96C931.371 357.96 932.118 358.12 932.798 358.44C933.491 358.76 934.098 359.24 934.618 359.88C934.765 360.04 934.818 360.213 934.778 360.4C934.738 360.573 934.625 360.727 934.438 360.86C934.291 360.967 934.125 361.007 933.938 360.98C933.765 360.94 933.611 360.84 933.478 360.68C932.705 359.8 931.731 359.36 930.558 359.36C929.811 359.36 929.151 359.54 928.578 359.9C928.018 360.26 927.578 360.753 927.258 361.38C926.951 362.007 926.798 362.727 926.798 363.54C926.798 364.34 926.965 365.053 927.298 365.68C927.631 366.307 928.098 366.8 928.698 367.16C929.298 367.52 929.985 367.7 930.758 367.7C931.278 367.7 931.751 367.633 932.178 367.5C932.618 367.353 933.005 367.133 933.338 366.84C933.498 366.707 933.665 366.633 933.838 366.62C934.011 366.607 934.171 366.66 934.318 366.78C934.478 366.927 934.565 367.093 934.578 367.28C934.605 367.467 934.545 367.627 934.398 367.76C933.425 368.653 932.211 369.1 930.758 369.1ZM942.053 369C941.346 369 940.713 368.833 940.153 368.5C939.606 368.167 939.173 367.713 938.853 367.14C938.533 366.553 938.373 365.887 938.373 365.14V355.36C938.373 355.133 938.439 354.947 938.573 354.8C938.719 354.653 938.906 354.58 939.133 354.58C939.359 354.58 939.546 354.653 939.693 354.8C939.839 354.947 939.913 355.133 939.913 355.36V365.14C939.913 365.82 940.113 366.38 940.513 366.82C940.913 367.247 941.426 367.46 942.053 367.46H942.593C942.806 367.46 942.979 367.533 943.113 367.68C943.246 367.827 943.313 368.013 943.313 368.24C943.313 368.467 943.233 368.653 943.073 368.8C942.913 368.933 942.713 369 942.473 369H942.053ZM937.073 359.8C936.873 359.8 936.706 359.74 936.573 359.62C936.439 359.487 936.373 359.327 936.373 359.14C936.373 358.94 936.439 358.78 936.573 358.66C936.706 358.527 936.873 358.46 937.073 358.46H942.173C942.373 358.46 942.539 358.527 942.673 358.66C942.806 358.78 942.873 358.94 942.873 359.14C942.873 359.327 942.806 359.487 942.673 359.62C942.539 359.74 942.373 359.8 942.173 359.8H937.073ZM946.92 369C946.68 369 946.486 368.933 946.34 368.8C946.206 368.653 946.14 368.46 946.14 368.22V358.84C946.14 358.6 946.206 358.413 946.34 358.28C946.486 358.133 946.68 358.06 946.92 358.06C947.146 358.06 947.326 358.133 947.46 358.28C947.606 358.413 947.68 358.6 947.68 358.84V368.22C947.68 368.46 947.606 368.653 947.46 368.8C947.326 368.933 947.146 369 946.92 369ZM946.9 355.98C946.606 355.98 946.353 355.873 946.14 355.66C945.926 355.447 945.82 355.187 945.82 354.88C945.82 354.547 945.926 354.287 946.14 354.1C946.366 353.9 946.626 353.8 946.92 353.8C947.2 353.8 947.446 353.9 947.66 354.1C947.886 354.287 948 354.547 948 354.88C948 355.187 947.893 355.447 947.68 355.66C947.466 355.873 947.206 355.98 946.9 355.98ZM956.481 369.1C955.427 369.1 954.487 368.86 953.661 368.38C952.847 367.887 952.201 367.22 951.721 366.38C951.254 365.54 951.021 364.593 951.021 363.54C951.021 362.473 951.247 361.52 951.701 360.68C952.154 359.84 952.774 359.18 953.561 358.7C954.347 358.207 955.254 357.96 956.281 357.96C957.094 357.96 957.841 358.12 958.521 358.44C959.214 358.76 959.821 359.24 960.341 359.88C960.487 360.04 960.541 360.213 960.501 360.4C960.461 360.573 960.347 360.727 960.161 360.86C960.014 360.967 959.847 361.007 959.661 360.98C959.487 360.94 959.334 360.84 959.201 360.68C958.427 359.8 957.454 359.36 956.281 359.36C955.534 359.36 954.874 359.54 954.301 359.9C953.741 360.26 953.301 360.753 952.981 361.38C952.674 362.007 952.521 362.727 952.521 363.54C952.521 364.34 952.687 365.053 953.021 365.68C953.354 366.307 953.821 366.8 954.421 367.16C955.021 367.52 955.707 367.7 956.481 367.7C957.001 367.7 957.474 367.633 957.901 367.5C958.341 367.353 958.727 367.133 959.061 366.84C959.221 366.707 959.387 366.633 959.561 366.62C959.734 366.607 959.894 366.66 960.041 366.78C960.201 366.927 960.287 367.093 960.301 367.28C960.327 367.467 960.267 367.627 960.121 367.76C959.147 368.653 957.934 369.1 956.481 369.1ZM968.455 369.1C967.375 369.1 966.415 368.867 965.575 368.4C964.749 367.92 964.095 367.26 963.615 366.42C963.149 365.58 962.915 364.62 962.915 363.54C962.915 362.447 963.135 361.487 963.575 360.66C964.029 359.82 964.649 359.16 965.435 358.68C966.222 358.2 967.129 357.96 968.155 357.96C969.169 357.96 970.049 358.193 970.795 358.66C971.555 359.113 972.142 359.747 972.555 360.56C972.969 361.373 973.175 362.3 973.175 363.34C973.175 363.553 973.109 363.727 972.975 363.86C972.842 363.98 972.669 364.04 972.455 364.04H963.955V362.76H972.615L971.755 363.38C971.769 362.607 971.629 361.913 971.335 361.3C971.042 360.687 970.622 360.207 970.075 359.86C969.542 359.513 968.902 359.34 968.155 359.34C967.395 359.34 966.729 359.52 966.155 359.88C965.582 360.24 965.135 360.74 964.815 361.38C964.509 362.007 964.355 362.727 964.355 363.54C964.355 364.353 964.529 365.073 964.875 365.7C965.235 366.327 965.722 366.82 966.335 367.18C966.949 367.54 967.655 367.72 968.455 367.72C968.935 367.72 969.415 367.64 969.895 367.48C970.389 367.307 970.782 367.093 971.075 366.84C971.222 366.72 971.389 366.66 971.575 366.66C971.762 366.647 971.922 366.693 972.055 366.8C972.229 366.96 972.315 367.133 972.315 367.32C972.329 367.507 972.255 367.667 972.095 367.8C971.655 368.173 971.095 368.487 970.415 368.74C969.735 368.98 969.082 369.1 968.455 369.1ZM979.6 369.1C978.814 369.1 978.034 368.967 977.26 368.7C976.487 368.433 975.86 368.033 975.38 367.5C975.234 367.34 975.174 367.16 975.2 366.96C975.227 366.76 975.327 366.587 975.5 366.44C975.687 366.307 975.88 366.253 976.08 366.28C976.28 366.307 976.447 366.393 976.58 366.54C976.9 366.913 977.32 367.2 977.84 367.4C978.374 367.6 978.96 367.7 979.6 367.7C980.587 367.7 981.3 367.533 981.74 367.2C982.18 366.853 982.407 366.44 982.42 365.96C982.42 365.48 982.194 365.087 981.74 364.78C981.287 364.46 980.54 364.213 979.5 364.04C978.154 363.827 977.167 363.453 976.54 362.92C975.914 362.387 975.6 361.753 975.6 361.02C975.6 360.34 975.78 359.773 976.14 359.32C976.5 358.867 976.98 358.527 977.58 358.3C978.18 358.073 978.84 357.96 979.56 357.96C980.454 357.96 981.22 358.113 981.86 358.42C982.514 358.727 983.04 359.14 983.44 359.66C983.574 359.833 983.627 360.013 983.6 360.2C983.574 360.387 983.467 360.54 983.28 360.66C983.12 360.753 982.934 360.787 982.72 360.76C982.52 360.72 982.347 360.62 982.2 360.46C981.867 360.073 981.48 359.793 981.04 359.62C980.6 359.433 980.094 359.34 979.52 359.34C978.787 359.34 978.2 359.493 977.76 359.8C977.32 360.093 977.1 360.467 977.1 360.92C977.1 361.227 977.18 361.493 977.34 361.72C977.514 361.947 977.8 362.147 978.2 362.32C978.614 362.493 979.187 362.64 979.92 362.76C980.92 362.92 981.707 363.16 982.28 363.48C982.867 363.787 983.28 364.153 983.52 364.58C983.774 364.993 983.9 365.447 983.9 365.94C983.9 366.567 983.714 367.12 983.34 367.6C982.98 368.067 982.474 368.433 981.82 368.7C981.18 368.967 980.44 369.1 979.6 369.1Z" fill="#ADBAC7"/>
<circle cx="225" cy="306.5" r="75" fill="white"/>
<path d="M185.966 278.249L223.482 256.635C224.421 256.094 225.579 256.094 226.517 256.635L264.035 278.249C264.973 278.79 265.552 279.789 265.552 280.871V324.099C265.552 325.18 264.973 326.181 264.035 326.722L226.517 348.336C225.579 348.877 224.421 348.877 223.482 348.336L185.966 326.722C185.027 326.181 184.448 325.181 184.448 324.099V280.871C184.449 279.789 185.028 278.79 185.966 278.249Z" fill="#FFBA00" fill-opacity="0.6"/>
<path d="M322.544 297.938L277.719 220.121C276.09 217.307 273.082 215.232 269.827 215.232H180.175C176.918 215.232 173.909 217.307 172.281 220.121L127.456 297.766C125.828 300.58 125.828 304.132 127.456 306.947L172.281 384.126C173.909 386.939 176.918 388.378 180.175 388.378H269.826C273.082 388.378 276.09 386.983 277.718 384.168L322.543 306.863C324.173 304.05 324.173 300.751 322.544 297.938ZM285.426 335.357C285.426 336.501 284.736 337.56 283.742 338.132L226.644 371.004C225.651 371.576 224.407 371.576 223.414 371.004L166.272 338.132C165.279 337.56 164.584 336.502 164.584 335.357V269.612C164.584 268.467 165.269 267.41 166.263 266.837L223.358 233.965C224.351 233.392 225.594 233.392 226.587 233.965L283.733 266.837C284.727 267.41 285.426 268.467 285.426 269.612V335.357Z" fill="#FFBA00"/>
</svg>
