<svg width="1200" height="627" viewBox="0 0 1200 627" fill="none" xmlns="http://www.w3.org/2000/svg">
<rect width="1200" height="627" fill="white"/>
<path d="M390 325.8C385.68 325.8 381.627 325 377.84 323.4C374.107 321.747 370.827 319.48 368 316.6C365.227 313.667 363.04 310.253 361.44 306.36C359.893 302.467 359.12 298.253 359.12 293.72C359.12 289.24 359.893 285.08 361.44 281.24C363.04 277.347 365.227 273.96 368 271.08C370.827 268.147 374.107 265.853 377.84 264.2C381.573 262.547 385.627 261.72 390 261.72C394.107 261.72 397.627 262.253 400.56 263.32C403.547 264.387 406.533 266.147 409.52 268.6C409.947 268.92 410.267 269.267 410.48 269.64C410.747 269.96 410.907 270.307 410.96 270.68C411.067 271 411.12 271.4 411.12 271.88C411.12 272.893 410.747 273.747 410 274.44C409.307 275.08 408.453 275.453 407.44 275.56C406.427 275.613 405.44 275.267 404.48 274.52C402.507 272.813 400.453 271.507 398.32 270.6C396.24 269.693 393.467 269.24 390 269.24C386.853 269.24 383.893 269.88 381.12 271.16C378.347 272.44 375.893 274.2 373.76 276.44C371.68 278.68 370.053 281.293 368.88 284.28C367.707 287.213 367.12 290.36 367.12 293.72C367.12 297.133 367.707 300.333 368.88 303.32C370.053 306.253 371.68 308.84 373.76 311.08C375.893 313.32 378.347 315.08 381.12 316.36C383.893 317.587 386.853 318.2 390 318.2C392.72 318.2 395.28 317.747 397.68 316.84C400.133 315.88 402.48 314.573 404.72 312.92C405.68 312.227 406.613 311.933 407.52 312.04C408.48 312.093 409.28 312.467 409.92 313.16C410.56 313.8 410.88 314.707 410.88 315.88C410.88 316.413 410.773 316.947 410.56 317.48C410.347 317.96 410.027 318.413 409.6 318.84C406.72 321.133 403.627 322.867 400.32 324.04C397.067 325.213 393.627 325.8 390 325.8ZM427.468 309.08C426.294 309.08 425.308 308.707 424.508 307.96C423.761 307.16 423.388 306.173 423.388 305V266.6C423.388 265.373 423.761 264.387 424.508 263.64C425.308 262.893 426.294 262.52 427.468 262.52C428.694 262.52 429.681 262.893 430.428 263.64C431.174 264.387 431.548 265.373 431.548 266.6V305C431.548 306.173 431.174 307.16 430.428 307.96C429.681 308.707 428.694 309.08 427.468 309.08ZM460.348 325.08C459.174 325.08 458.188 324.707 457.388 323.96C456.641 323.16 456.268 322.173 456.268 321V301.32C456.268 298.28 455.708 295.8 454.588 293.88C453.468 291.96 451.948 290.547 450.028 289.64C448.161 288.68 446.001 288.2 443.548 288.2C441.308 288.2 439.281 288.653 437.468 289.56C435.654 290.467 434.214 291.693 433.148 293.24C432.081 294.733 431.548 296.467 431.548 298.44H426.508C426.508 295.08 427.308 292.093 428.908 289.48C430.561 286.813 432.801 284.707 435.628 283.16C438.454 281.613 441.628 280.84 445.148 280.84C448.828 280.84 452.108 281.64 454.988 283.24C457.921 284.787 460.214 287.08 461.868 290.12C463.574 293.16 464.428 296.893 464.428 301.32V321C464.428 322.173 464.028 323.16 463.227 323.96C462.481 324.707 461.521 325.08 460.348 325.08ZM427.468 325.08C426.294 325.08 425.308 324.707 424.508 323.96C423.761 323.16 423.388 322.173 423.388 321V285.32C423.388 284.093 423.761 283.107 424.508 282.36C425.308 281.613 426.294 281.24 427.468 281.24C428.694 281.24 429.681 281.613 430.428 282.36C431.174 283.107 431.548 284.093 431.548 285.32V321C431.548 322.173 431.174 323.16 430.428 323.96C429.681 324.707 428.694 325.08 427.468 325.08ZM497.837 325.32C493.517 325.32 489.704 324.387 486.397 322.52C483.09 320.6 480.477 317.987 478.557 314.68C476.69 311.32 475.757 307.48 475.757 303.16C475.757 298.787 476.69 294.947 478.557 291.64C480.477 288.28 483.09 285.667 486.397 283.8C489.704 281.88 493.517 280.92 497.837 280.92C502.104 280.92 505.89 281.88 509.197 283.8C512.504 285.667 515.09 288.28 516.957 291.64C518.877 294.947 519.837 298.787 519.837 303.16C519.837 307.48 518.904 311.32 517.037 314.68C515.17 317.987 512.584 320.6 509.277 322.52C505.97 324.387 502.157 325.32 497.837 325.32ZM497.837 318.12C500.61 318.12 503.064 317.48 505.197 316.2C507.33 314.92 508.984 313.16 510.157 310.92C511.384 308.68 511.997 306.093 511.997 303.16C511.997 300.227 511.384 297.64 510.157 295.4C508.984 293.107 507.33 291.32 505.197 290.04C503.064 288.76 500.61 288.12 497.837 288.12C495.064 288.12 492.61 288.76 490.477 290.04C488.344 291.32 486.664 293.107 485.437 295.4C484.21 297.64 483.597 300.227 483.597 303.16C483.597 306.093 484.21 308.68 485.437 310.92C486.664 313.16 488.344 314.92 490.477 316.2C492.61 317.48 495.064 318.12 497.837 318.12ZM547.901 325C545.235 325 542.835 324.333 540.701 323C538.568 321.613 536.888 319.747 535.661 317.4C534.435 315.053 533.821 312.413 533.821 309.48V271.32C533.821 270.147 534.195 269.187 534.941 268.44C535.688 267.693 536.648 267.32 537.821 267.32C538.995 267.32 539.955 267.693 540.701 268.44C541.448 269.187 541.821 270.147 541.821 271.32V309.48C541.821 311.613 542.408 313.4 543.581 314.84C544.755 316.28 546.195 317 547.901 317H550.621C551.581 317 552.381 317.373 553.021 318.12C553.715 318.867 554.061 319.827 554.061 321C554.061 322.173 553.608 323.133 552.701 323.88C551.848 324.627 550.728 325 549.341 325H547.901ZM530.141 289.72C529.021 289.72 528.115 289.4 527.421 288.76C526.728 288.12 526.381 287.32 526.381 286.36C526.381 285.293 526.728 284.44 527.421 283.8C528.115 283.16 529.021 282.84 530.141 282.84H548.621C549.741 282.84 550.648 283.16 551.341 283.8C552.035 284.44 552.381 285.293 552.381 286.36C552.381 287.32 552.035 288.12 551.341 288.76C550.648 289.4 549.741 289.72 548.621 289.72H530.141ZM583.931 325.32C579.611 325.32 575.797 324.387 572.491 322.52C569.184 320.6 566.571 317.987 564.651 314.68C562.784 311.32 561.851 307.48 561.851 303.16C561.851 298.787 562.784 294.947 564.651 291.64C566.571 288.28 569.184 285.667 572.491 283.8C575.797 281.88 579.611 280.92 583.931 280.92C588.197 280.92 591.984 281.88 595.291 283.8C598.597 285.667 601.184 288.28 603.051 291.64C604.971 294.947 605.931 298.787 605.931 303.16C605.931 307.48 604.997 311.32 603.131 314.68C601.264 317.987 598.677 320.6 595.371 322.52C592.064 324.387 588.251 325.32 583.931 325.32ZM583.931 318.12C586.704 318.12 589.157 317.48 591.291 316.2C593.424 314.92 595.077 313.16 596.251 310.92C597.477 308.68 598.091 306.093 598.091 303.16C598.091 300.227 597.477 297.64 596.251 295.4C595.077 293.107 593.424 291.32 591.291 290.04C589.157 288.76 586.704 288.12 583.931 288.12C581.157 288.12 578.704 288.76 576.571 290.04C574.437 291.32 572.757 293.107 571.531 295.4C570.304 297.64 569.691 300.227 569.691 303.16C569.691 306.093 570.304 308.68 571.531 310.92C572.757 313.16 574.437 314.92 576.571 316.2C578.704 317.48 581.157 318.12 583.931 318.12ZM633.995 325C631.328 325 628.928 324.333 626.795 323C624.662 321.613 622.982 319.747 621.755 317.4C620.528 315.053 619.915 312.413 619.915 309.48V271.32C619.915 270.147 620.288 269.187 621.035 268.44C621.782 267.693 622.742 267.32 623.915 267.32C625.088 267.32 626.048 267.693 626.795 268.44C627.542 269.187 627.915 270.147 627.915 271.32V309.48C627.915 311.613 628.502 313.4 629.675 314.84C630.848 316.28 632.288 317 633.995 317H636.715C637.675 317 638.475 317.373 639.115 318.12C639.808 318.867 640.155 319.827 640.155 321C640.155 322.173 639.702 323.133 638.795 323.88C637.942 324.627 636.822 325 635.435 325H633.995ZM616.235 289.72C615.115 289.72 614.208 289.4 613.515 288.76C612.822 288.12 612.475 287.32 612.475 286.36C612.475 285.293 612.822 284.44 613.515 283.8C614.208 283.16 615.115 282.84 616.235 282.84H634.715C635.835 282.84 636.742 283.16 637.435 283.8C638.128 284.44 638.475 285.293 638.475 286.36C638.475 287.32 638.128 288.12 637.435 288.76C636.742 289.4 635.835 289.72 634.715 289.72H616.235ZM678.582 325C677.409 325 676.422 324.6 675.622 323.8C674.822 323 674.422 322.013 674.422 320.84V266.68C674.422 265.453 674.822 264.467 675.622 263.72C676.422 262.92 677.409 262.52 678.582 262.52H714.742C715.969 262.52 716.955 262.893 717.702 263.64C718.449 264.333 718.822 265.267 718.822 266.44C718.822 267.56 718.449 268.467 717.702 269.16C716.955 269.853 715.969 270.2 714.742 270.2H682.742V289.64H705.702C706.929 289.64 707.915 290.013 708.662 290.76C709.409 291.453 709.782 292.36 709.782 293.48C709.782 294.6 709.409 295.533 708.662 296.28C707.915 296.973 706.929 297.32 705.702 297.32H682.742V317.32H714.742C715.969 317.32 716.955 317.667 717.702 318.36C718.449 319.053 718.822 319.96 718.822 321.08C718.822 322.253 718.449 323.213 717.702 323.96C716.955 324.653 715.969 325 714.742 325H678.582ZM750.278 325.8C746.864 325.8 743.611 325.267 740.518 324.2C737.424 323.133 734.731 321.64 732.438 319.72C730.144 317.8 728.464 315.587 727.398 313.08C726.864 311.96 726.864 310.92 727.398 309.96C727.984 309 728.944 308.387 730.278 308.12C731.238 307.907 732.171 308.067 733.078 308.6C734.038 309.08 734.758 309.827 735.238 310.84C735.878 312.173 736.918 313.4 738.358 314.52C739.851 315.64 741.638 316.547 743.718 317.24C745.798 317.933 747.984 318.28 750.278 318.28C752.838 318.28 755.184 317.88 757.318 317.08C759.504 316.28 761.264 315.133 762.598 313.64C763.931 312.093 764.598 310.2 764.598 307.96C764.598 305.133 763.478 302.6 761.238 300.36C759.051 298.12 755.424 296.733 750.358 296.2C743.744 295.56 738.544 293.613 734.758 290.36C730.971 287.107 729.078 283.08 729.078 278.28C729.078 274.76 730.064 271.773 732.038 269.32C734.011 266.867 736.678 265 740.038 263.72C743.451 262.44 747.238 261.8 751.398 261.8C754.651 261.8 757.478 262.253 759.878 263.16C762.331 264.067 764.464 265.32 766.278 266.92C768.091 268.52 769.664 270.413 770.998 272.6C771.744 273.773 772.038 274.893 771.878 275.96C771.771 276.973 771.264 277.773 770.358 278.36C769.344 279 768.251 279.133 767.078 278.76C765.904 278.387 765.024 277.693 764.438 276.68C763.584 275.133 762.544 273.827 761.318 272.76C760.091 271.693 758.651 270.867 756.998 270.28C755.344 269.64 753.398 269.32 751.158 269.32C747.211 269.267 743.904 270.013 741.238 271.56C738.571 273.053 737.238 275.373 737.238 278.52C737.238 280.12 737.638 281.667 738.438 283.16C739.291 284.6 740.811 285.853 742.997 286.92C745.238 287.987 748.438 288.733 752.598 289.16C758.944 289.8 763.878 291.747 767.398 295C770.971 298.2 772.758 302.44 772.758 307.72C772.758 310.76 772.118 313.4 770.838 315.64C769.611 317.88 767.931 319.773 765.798 321.32C763.718 322.813 761.318 323.933 758.598 324.68C755.931 325.427 753.158 325.8 750.278 325.8ZM789.596 325C788.422 325 787.436 324.6 786.636 323.8C785.889 323 785.516 322.013 785.516 320.84V266.68C785.516 265.507 785.916 264.52 786.716 263.72C787.516 262.92 788.476 262.52 789.596 262.52C790.769 262.52 791.756 262.92 792.556 263.72C793.356 264.52 793.756 265.507 793.756 266.68V316.68H822.716C823.889 316.68 824.876 317.08 825.676 317.88C826.476 318.68 826.876 319.667 826.876 320.84C826.876 322.013 826.476 323 825.676 323.8C824.876 324.6 823.889 325 822.716 325H789.596ZM840.924 325C839.75 325 838.764 324.627 837.964 323.88C837.217 323.08 836.844 322.093 836.844 320.92V285.32C836.844 284.093 837.217 283.107 837.964 282.36C838.764 281.613 839.75 281.24 840.924 281.24C842.15 281.24 843.137 281.613 843.884 282.36C844.63 283.107 845.004 284.093 845.004 285.32V320.92C845.004 322.093 844.63 323.08 843.884 323.88C843.137 324.627 842.15 325 840.924 325ZM840.924 274.12C839.484 274.12 838.23 273.613 837.164 272.6C836.15 271.533 835.644 270.28 835.644 268.84C835.644 267.4 836.15 266.173 837.164 265.16C838.23 264.093 839.484 263.56 840.924 263.56C842.364 263.56 843.59 264.093 844.604 265.16C845.67 266.173 846.204 267.4 846.204 268.84C846.204 270.28 845.67 271.533 844.604 272.6C843.59 273.613 842.364 274.12 840.924 274.12ZM897.144 325.08C895.971 325.08 894.984 324.707 894.184 323.96C893.438 323.16 893.064 322.173 893.064 321V301.32C893.064 298.28 892.504 295.8 891.384 293.88C890.264 291.96 888.744 290.547 886.824 289.64C884.958 288.68 882.798 288.2 880.344 288.2C878.104 288.2 876.078 288.653 874.264 289.56C872.451 290.467 871.011 291.693 869.944 293.24C868.878 294.733 868.344 296.467 868.344 298.44H863.304C863.304 295.08 864.104 292.093 865.704 289.48C867.358 286.813 869.598 284.707 872.424 283.16C875.251 281.613 878.424 280.84 881.944 280.84C885.624 280.84 888.904 281.64 891.784 283.24C894.718 284.787 897.011 287.08 898.664 290.12C900.371 293.16 901.224 296.893 901.224 301.32V321C901.224 322.173 900.824 323.16 900.024 323.96C899.278 324.707 898.318 325.08 897.144 325.08ZM864.264 325.08C863.091 325.08 862.104 324.707 861.304 323.96C860.558 323.16 860.184 322.173 860.184 321V285.32C860.184 284.093 860.558 283.107 861.304 282.36C862.104 281.613 863.091 281.24 864.264 281.24C865.491 281.24 866.478 281.613 867.224 282.36C867.971 283.107 868.344 284.093 868.344 285.32V321C868.344 322.173 867.971 323.16 867.224 323.96C866.478 324.707 865.491 325.08 864.264 325.08ZM930.636 325C927.969 325 925.569 324.333 923.436 323C921.302 321.613 919.622 319.747 918.396 317.4C917.169 315.053 916.556 312.413 916.556 309.48V271.32C916.556 270.147 916.929 269.187 917.676 268.44C918.422 267.693 919.382 267.32 920.556 267.32C921.729 267.32 922.689 267.693 923.436 268.44C924.182 269.187 924.556 270.147 924.556 271.32V309.48C924.556 311.613 925.142 313.4 926.316 314.84C927.489 316.28 928.929 317 930.636 317H933.356C934.316 317 935.116 317.373 935.756 318.12C936.449 318.867 936.796 319.827 936.796 321C936.796 322.173 936.342 323.133 935.436 323.88C934.582 324.627 933.462 325 932.076 325H930.636ZM912.876 289.72C911.756 289.72 910.849 289.4 910.156 288.76C909.462 288.12 909.116 287.32 909.116 286.36C909.116 285.293 909.462 284.44 910.156 283.8C910.849 283.16 911.756 282.84 912.876 282.84H931.356C932.476 282.84 933.382 283.16 934.076 283.8C934.769 284.44 935.116 285.293 935.116 286.36C935.116 287.32 934.769 288.12 934.076 288.76C933.382 289.4 932.476 289.72 931.356 289.72H912.876Z" fill="black"/>
<path d="M370.8 370.2C369.947 370.2 369.153 370.08 368.42 369.84C367.7 369.587 367.073 369.233 366.54 368.78C366.007 368.327 365.6 367.8 365.32 367.2C365.213 366.987 365.207 366.793 365.3 366.62C365.407 366.433 365.58 366.307 365.82 366.24C366.007 366.187 366.187 366.207 366.36 366.3C366.547 366.393 366.687 366.533 366.78 366.72C366.98 367.107 367.273 367.453 367.66 367.76C368.047 368.067 368.507 368.307 369.04 368.48C369.573 368.64 370.16 368.72 370.8 368.72C371.507 368.72 372.133 368.607 372.68 368.38C373.227 368.14 373.653 367.8 373.96 367.36C374.28 366.907 374.44 366.36 374.44 365.72C374.44 364.907 374.14 364.207 373.54 363.62C372.94 363.033 372 362.66 370.72 362.5C369.16 362.313 367.94 361.833 367.06 361.06C366.18 360.273 365.74 359.313 365.74 358.18C365.74 357.367 365.953 356.66 366.38 356.06C366.82 355.46 367.42 355 368.18 354.68C368.94 354.347 369.813 354.18 370.8 354.18C371.533 354.18 372.2 354.3 372.8 354.54C373.4 354.767 373.92 355.073 374.36 355.46C374.813 355.833 375.18 356.247 375.46 356.7C375.593 356.913 375.633 357.12 375.58 357.32C375.54 357.52 375.427 357.673 375.24 357.78C375.04 357.873 374.833 357.887 374.62 357.82C374.42 357.753 374.267 357.627 374.16 357.44C373.96 357.133 373.707 356.847 373.4 356.58C373.107 356.3 372.747 356.08 372.32 355.92C371.893 355.76 371.38 355.673 370.78 355.66C369.727 355.66 368.88 355.887 368.24 356.34C367.6 356.78 367.28 357.427 367.28 358.28C367.28 358.733 367.4 359.153 367.64 359.54C367.88 359.913 368.273 360.24 368.82 360.52C369.38 360.787 370.127 360.987 371.06 361.12C372.727 361.36 373.96 361.873 374.76 362.66C375.573 363.433 375.98 364.447 375.98 365.7C375.98 366.42 375.847 367.06 375.58 367.62C375.327 368.18 374.96 368.653 374.48 369.04C374.013 369.413 373.46 369.7 372.82 369.9C372.193 370.1 371.52 370.2 370.8 370.2ZM384.002 370.1C382.922 370.1 381.962 369.867 381.122 369.4C380.296 368.92 379.642 368.26 379.162 367.42C378.696 366.58 378.462 365.62 378.462 364.54C378.462 363.447 378.682 362.487 379.122 361.66C379.576 360.82 380.196 360.16 380.982 359.68C381.769 359.2 382.676 358.96 383.702 358.96C384.716 358.96 385.596 359.193 386.342 359.66C387.102 360.113 387.689 360.747 388.102 361.56C388.516 362.373 388.722 363.3 388.722 364.34C388.722 364.553 388.656 364.727 388.522 364.86C388.389 364.98 388.216 365.04 388.002 365.04H379.502V363.76H388.162L387.302 364.38C387.316 363.607 387.176 362.913 386.882 362.3C386.589 361.687 386.169 361.207 385.622 360.86C385.089 360.513 384.449 360.34 383.702 360.34C382.942 360.34 382.276 360.52 381.702 360.88C381.129 361.24 380.682 361.74 380.362 362.38C380.056 363.007 379.902 363.727 379.902 364.54C379.902 365.353 380.076 366.073 380.422 366.7C380.782 367.327 381.269 367.82 381.882 368.18C382.496 368.54 383.202 368.72 384.002 368.72C384.482 368.72 384.962 368.64 385.442 368.48C385.936 368.307 386.329 368.093 386.622 367.84C386.769 367.72 386.936 367.66 387.122 367.66C387.309 367.647 387.469 367.693 387.602 367.8C387.776 367.96 387.862 368.133 387.862 368.32C387.876 368.507 387.802 368.667 387.642 368.8C387.202 369.173 386.642 369.487 385.962 369.74C385.282 369.98 384.629 370.1 384.002 370.1ZM400.707 370C400.481 370 400.294 369.927 400.147 369.78C400.001 369.633 399.927 369.453 399.927 369.24V364.04C399.927 363.213 399.767 362.533 399.447 362C399.141 361.467 398.714 361.067 398.167 360.8C397.634 360.533 397.027 360.4 396.347 360.4C395.694 360.4 395.101 360.527 394.567 360.78C394.047 361.033 393.634 361.38 393.327 361.82C393.021 362.26 392.867 362.76 392.867 363.32H391.767C391.794 362.48 392.021 361.733 392.447 361.08C392.874 360.413 393.441 359.893 394.147 359.52C394.854 359.133 395.641 358.94 396.507 358.94C397.454 358.94 398.301 359.14 399.047 359.54C399.794 359.927 400.381 360.5 400.807 361.26C401.247 362.02 401.467 362.947 401.467 364.04V369.24C401.467 369.453 401.394 369.633 401.247 369.78C401.101 369.927 400.921 370 400.707 370ZM392.107 370C391.867 370 391.674 369.933 391.527 369.8C391.394 369.653 391.327 369.467 391.327 369.24V359.84C391.327 359.6 391.394 359.413 391.527 359.28C391.674 359.133 391.867 359.06 392.107 359.06C392.334 359.06 392.514 359.133 392.647 359.28C392.794 359.413 392.867 359.6 392.867 359.84V369.24C392.867 369.467 392.794 369.653 392.647 369.8C392.514 369.933 392.334 370 392.107 370ZM408.683 370.1C407.896 370.1 407.116 369.967 406.343 369.7C405.569 369.433 404.943 369.033 404.463 368.5C404.316 368.34 404.256 368.16 404.283 367.96C404.309 367.76 404.409 367.587 404.583 367.44C404.769 367.307 404.963 367.253 405.163 367.28C405.363 367.307 405.529 367.393 405.663 367.54C405.983 367.913 406.403 368.2 406.923 368.4C407.456 368.6 408.043 368.7 408.683 368.7C409.669 368.7 410.383 368.533 410.823 368.2C411.263 367.853 411.489 367.44 411.503 366.96C411.503 366.48 411.276 366.087 410.823 365.78C410.369 365.46 409.623 365.213 408.583 365.04C407.236 364.827 406.249 364.453 405.623 363.92C404.996 363.387 404.683 362.753 404.683 362.02C404.683 361.34 404.863 360.773 405.223 360.32C405.583 359.867 406.063 359.527 406.663 359.3C407.263 359.073 407.923 358.96 408.643 358.96C409.536 358.96 410.303 359.113 410.943 359.42C411.596 359.727 412.123 360.14 412.523 360.66C412.656 360.833 412.709 361.013 412.683 361.2C412.656 361.387 412.549 361.54 412.363 361.66C412.203 361.753 412.016 361.787 411.803 361.76C411.603 361.72 411.429 361.62 411.283 361.46C410.949 361.073 410.563 360.793 410.123 360.62C409.683 360.433 409.176 360.34 408.603 360.34C407.869 360.34 407.283 360.493 406.843 360.8C406.403 361.093 406.183 361.467 406.183 361.92C406.183 362.227 406.263 362.493 406.423 362.72C406.596 362.947 406.883 363.147 407.283 363.32C407.696 363.493 408.269 363.64 409.003 363.76C410.003 363.92 410.789 364.16 411.363 364.48C411.949 364.787 412.363 365.153 412.603 365.58C412.856 365.993 412.983 366.447 412.983 366.94C412.983 367.567 412.796 368.12 412.423 368.6C412.063 369.067 411.556 369.433 410.903 369.7C410.263 369.967 409.523 370.1 408.683 370.1ZM416.744 370C416.504 370 416.31 369.933 416.164 369.8C416.03 369.653 415.964 369.46 415.964 369.22V359.84C415.964 359.6 416.03 359.413 416.164 359.28C416.31 359.133 416.504 359.06 416.744 359.06C416.97 359.06 417.15 359.133 417.284 359.28C417.43 359.413 417.504 359.6 417.504 359.84V369.22C417.504 369.46 417.43 369.653 417.284 369.8C417.15 369.933 416.97 370 416.744 370ZM416.724 356.98C416.43 356.98 416.177 356.873 415.964 356.66C415.75 356.447 415.644 356.187 415.644 355.88C415.644 355.547 415.75 355.287 415.964 355.1C416.19 354.9 416.45 354.8 416.744 354.8C417.024 354.8 417.27 354.9 417.484 355.1C417.71 355.287 417.824 355.547 417.824 355.88C417.824 356.187 417.717 356.447 417.504 356.66C417.29 356.873 417.03 356.98 416.724 356.98ZM426.965 370.1C425.925 370.1 424.985 369.86 424.145 369.38C423.318 368.9 422.658 368.247 422.165 367.42C421.685 366.58 421.438 365.64 421.425 364.6V355.16C421.425 354.92 421.492 354.733 421.625 354.6C421.772 354.453 421.965 354.38 422.205 354.38C422.432 354.38 422.612 354.453 422.745 354.6C422.892 354.733 422.965 354.92 422.965 355.16V361.04C423.405 360.413 423.985 359.913 424.705 359.54C425.438 359.153 426.252 358.96 427.145 358.96C428.172 358.96 429.092 359.207 429.905 359.7C430.718 360.18 431.358 360.84 431.825 361.68C432.305 362.52 432.545 363.467 432.545 364.52C432.545 365.587 432.298 366.54 431.805 367.38C431.325 368.22 430.665 368.887 429.825 369.38C428.985 369.86 428.032 370.1 426.965 370.1ZM426.965 368.7C427.738 368.7 428.432 368.52 429.045 368.16C429.658 367.787 430.138 367.287 430.485 366.66C430.845 366.033 431.025 365.32 431.025 364.52C431.025 363.733 430.845 363.027 430.485 362.4C430.138 361.76 429.658 361.26 429.045 360.9C428.432 360.54 427.738 360.36 426.965 360.36C426.205 360.36 425.518 360.54 424.905 360.9C424.292 361.26 423.812 361.76 423.465 362.4C423.118 363.027 422.945 363.733 422.945 364.52C422.945 365.32 423.118 366.033 423.465 366.66C423.812 367.287 424.292 367.787 424.905 368.16C425.518 368.52 426.205 368.7 426.965 368.7ZM437.926 370C437.392 370 436.912 369.853 436.486 369.56C436.072 369.267 435.746 368.86 435.506 368.34C435.279 367.82 435.166 367.22 435.166 366.54V355.14C435.166 354.913 435.232 354.733 435.366 354.6C435.512 354.453 435.699 354.38 435.926 354.38C436.152 354.38 436.332 354.453 436.466 354.6C436.612 354.733 436.686 354.913 436.686 355.14V366.54C436.686 367.113 436.799 367.58 437.026 367.94C437.266 368.3 437.566 368.48 437.926 368.48H438.426C438.626 368.48 438.786 368.553 438.906 368.7C439.026 368.833 439.086 369.013 439.086 369.24C439.086 369.467 438.999 369.653 438.826 369.8C438.666 369.933 438.452 370 438.186 370H437.926ZM445.565 370.1C444.485 370.1 443.525 369.867 442.685 369.4C441.858 368.92 441.205 368.26 440.725 367.42C440.258 366.58 440.025 365.62 440.025 364.54C440.025 363.447 440.245 362.487 440.685 361.66C441.138 360.82 441.758 360.16 442.545 359.68C443.331 359.2 444.238 358.96 445.265 358.96C446.278 358.96 447.158 359.193 447.905 359.66C448.665 360.113 449.251 360.747 449.665 361.56C450.078 362.373 450.285 363.3 450.285 364.34C450.285 364.553 450.218 364.727 450.085 364.86C449.951 364.98 449.778 365.04 449.565 365.04H441.065V363.76H449.725L448.865 364.38C448.878 363.607 448.738 362.913 448.445 362.3C448.151 361.687 447.731 361.207 447.185 360.86C446.651 360.513 446.011 360.34 445.265 360.34C444.505 360.34 443.838 360.52 443.265 360.88C442.691 361.24 442.245 361.74 441.925 362.38C441.618 363.007 441.465 363.727 441.465 364.54C441.465 365.353 441.638 366.073 441.985 366.7C442.345 367.327 442.831 367.82 443.445 368.18C444.058 368.54 444.765 368.72 445.565 368.72C446.045 368.72 446.525 368.64 447.005 368.48C447.498 368.307 447.891 368.093 448.185 367.84C448.331 367.72 448.498 367.66 448.685 367.66C448.871 367.647 449.031 367.693 449.165 367.8C449.338 367.96 449.425 368.133 449.425 368.32C449.438 368.507 449.365 368.667 449.205 368.8C448.765 369.173 448.205 369.487 447.525 369.74C446.845 369.98 446.191 370.1 445.565 370.1ZM462.569 370.1C461.783 370.1 461.003 369.967 460.229 369.7C459.456 369.433 458.829 369.033 458.349 368.5C458.203 368.34 458.143 368.16 458.169 367.96C458.196 367.76 458.296 367.587 458.469 367.44C458.656 367.307 458.849 367.253 459.049 367.28C459.249 367.307 459.416 367.393 459.549 367.54C459.869 367.913 460.289 368.2 460.809 368.4C461.343 368.6 461.929 368.7 462.569 368.7C463.556 368.7 464.269 368.533 464.709 368.2C465.149 367.853 465.376 367.44 465.389 366.96C465.389 366.48 465.163 366.087 464.709 365.78C464.256 365.46 463.509 365.213 462.469 365.04C461.123 364.827 460.136 364.453 459.509 363.92C458.883 363.387 458.569 362.753 458.569 362.02C458.569 361.34 458.749 360.773 459.109 360.32C459.469 359.867 459.949 359.527 460.549 359.3C461.149 359.073 461.809 358.96 462.529 358.96C463.423 358.96 464.189 359.113 464.829 359.42C465.483 359.727 466.009 360.14 466.409 360.66C466.543 360.833 466.596 361.013 466.569 361.2C466.543 361.387 466.436 361.54 466.249 361.66C466.089 361.753 465.903 361.787 465.689 361.76C465.489 361.72 465.316 361.62 465.169 361.46C464.836 361.073 464.449 360.793 464.009 360.62C463.569 360.433 463.063 360.34 462.489 360.34C461.756 360.34 461.169 360.493 460.729 360.8C460.289 361.093 460.069 361.467 460.069 361.92C460.069 362.227 460.149 362.493 460.309 362.72C460.483 362.947 460.769 363.147 461.169 363.32C461.583 363.493 462.156 363.64 462.889 363.76C463.889 363.92 464.676 364.16 465.249 364.48C465.836 364.787 466.249 365.153 466.489 365.58C466.743 365.993 466.869 366.447 466.869 366.94C466.869 367.567 466.683 368.12 466.309 368.6C465.949 369.067 465.443 369.433 464.789 369.7C464.149 369.967 463.409 370.1 462.569 370.1ZM474.49 370.1C473.41 370.1 472.45 369.867 471.61 369.4C470.784 368.92 470.13 368.26 469.65 367.42C469.184 366.58 468.95 365.62 468.95 364.54C468.95 363.447 469.17 362.487 469.61 361.66C470.064 360.82 470.684 360.16 471.47 359.68C472.257 359.2 473.164 358.96 474.19 358.96C475.204 358.96 476.084 359.193 476.83 359.66C477.59 360.113 478.177 360.747 478.59 361.56C479.004 362.373 479.21 363.3 479.21 364.34C479.21 364.553 479.144 364.727 479.01 364.86C478.877 364.98 478.704 365.04 478.49 365.04H469.99V363.76H478.65L477.79 364.38C477.804 363.607 477.664 362.913 477.37 362.3C477.077 361.687 476.657 361.207 476.11 360.86C475.577 360.513 474.937 360.34 474.19 360.34C473.43 360.34 472.764 360.52 472.19 360.88C471.617 361.24 471.17 361.74 470.85 362.38C470.544 363.007 470.39 363.727 470.39 364.54C470.39 365.353 470.564 366.073 470.91 366.7C471.27 367.327 471.757 367.82 472.37 368.18C472.984 368.54 473.69 368.72 474.49 368.72C474.97 368.72 475.45 368.64 475.93 368.48C476.424 368.307 476.817 368.093 477.11 367.84C477.257 367.72 477.424 367.66 477.61 367.66C477.797 367.647 477.957 367.693 478.09 367.8C478.264 367.96 478.35 368.133 478.35 368.32C478.364 368.507 478.29 368.667 478.13 368.8C477.69 369.173 477.13 369.487 476.45 369.74C475.77 369.98 475.117 370.1 474.49 370.1ZM486.096 370C485.389 370 484.756 369.833 484.196 369.5C483.649 369.167 483.216 368.713 482.896 368.14C482.576 367.553 482.416 366.887 482.416 366.14V356.36C482.416 356.133 482.482 355.947 482.616 355.8C482.762 355.653 482.949 355.58 483.176 355.58C483.402 355.58 483.589 355.653 483.736 355.8C483.882 355.947 483.956 356.133 483.956 356.36V366.14C483.956 366.82 484.156 367.38 484.556 367.82C484.956 368.247 485.469 368.46 486.096 368.46H486.636C486.849 368.46 487.022 368.533 487.156 368.68C487.289 368.827 487.356 369.013 487.356 369.24C487.356 369.467 487.276 369.653 487.116 369.8C486.956 369.933 486.756 370 486.516 370H486.096ZM481.116 360.8C480.916 360.8 480.749 360.74 480.616 360.62C480.482 360.487 480.416 360.327 480.416 360.14C480.416 359.94 480.482 359.78 480.616 359.66C480.749 359.527 480.916 359.46 481.116 359.46H486.216C486.416 359.46 486.582 359.527 486.716 359.66C486.849 359.78 486.916 359.94 486.916 360.14C486.916 360.327 486.849 360.487 486.716 360.62C486.582 360.74 486.416 360.8 486.216 360.8H481.116ZM500.702 370.1C499.635 370.1 498.682 369.86 497.842 369.38C497.002 368.9 496.342 368.24 495.862 367.4C495.382 366.56 495.142 365.607 495.142 364.54C495.142 363.46 495.382 362.5 495.862 361.66C496.342 360.82 497.002 360.16 497.842 359.68C498.682 359.2 499.635 358.96 500.702 358.96C501.769 358.96 502.715 359.2 503.542 359.68C504.382 360.16 505.042 360.82 505.522 361.66C506.002 362.5 506.249 363.46 506.262 364.54C506.262 365.607 506.015 366.56 505.522 367.4C505.042 368.24 504.382 368.9 503.542 369.38C502.715 369.86 501.769 370.1 500.702 370.1ZM500.702 368.7C501.475 368.7 502.169 368.52 502.782 368.16C503.395 367.8 503.875 367.307 504.222 366.68C504.569 366.053 504.742 365.34 504.742 364.54C504.742 363.74 504.569 363.027 504.222 362.4C503.875 361.76 503.395 361.26 502.782 360.9C502.169 360.54 501.475 360.36 500.702 360.36C499.929 360.36 499.235 360.54 498.622 360.9C498.009 361.26 497.522 361.76 497.162 362.4C496.815 363.027 496.642 363.74 496.642 364.54C496.642 365.34 496.815 366.053 497.162 366.68C497.522 367.307 498.009 367.8 498.622 368.16C499.235 368.52 499.929 368.7 500.702 368.7ZM510.617 370C510.417 370 510.244 369.933 510.097 369.8C509.95 369.653 509.877 369.46 509.877 369.22V359.08C509.877 358.147 510.037 357.327 510.357 356.62C510.677 355.913 511.15 355.367 511.777 354.98C512.404 354.58 513.17 354.38 514.077 354.38C514.304 354.38 514.49 354.447 514.637 354.58C514.784 354.713 514.857 354.88 514.857 355.08C514.857 355.28 514.784 355.447 514.637 355.58C514.49 355.713 514.304 355.78 514.077 355.78C513.477 355.78 512.977 355.92 512.577 356.2C512.19 356.467 511.897 356.847 511.697 357.34C511.51 357.82 511.417 358.373 511.417 359V369.22C511.417 369.46 511.344 369.653 511.197 369.8C511.064 369.933 510.87 370 510.617 370ZM508.597 360.8C508.384 360.8 508.21 360.74 508.077 360.62C507.957 360.487 507.897 360.327 507.897 360.14C507.897 359.94 507.957 359.78 508.077 359.66C508.21 359.527 508.384 359.46 508.597 359.46H513.817C514.03 359.46 514.197 359.527 514.317 359.66C514.45 359.78 514.517 359.94 514.517 360.14C514.517 360.327 514.45 360.487 514.317 360.62C514.197 360.74 514.03 360.8 513.817 360.8H508.597ZM523.081 363.26C523.121 362.433 523.334 361.693 523.721 361.04C524.121 360.387 524.634 359.873 525.261 359.5C525.901 359.127 526.607 358.94 527.381 358.94C527.994 358.94 528.467 359.027 528.801 359.2C529.134 359.373 529.261 359.627 529.181 359.96C529.127 360.16 529.034 360.293 528.901 360.36C528.781 360.427 528.627 360.453 528.441 360.44C528.267 360.427 528.067 360.413 527.841 360.4C527.094 360.333 526.427 360.413 525.841 360.64C525.267 360.853 524.807 361.187 524.461 361.64C524.127 362.093 523.961 362.633 523.961 363.26H523.081ZM523.201 370C522.961 370 522.774 369.933 522.641 369.8C522.507 369.667 522.441 369.48 522.441 369.24V359.82C522.441 359.58 522.507 359.393 522.641 359.26C522.774 359.127 522.961 359.06 523.201 359.06C523.441 359.06 523.627 359.127 523.761 359.26C523.894 359.393 523.961 359.58 523.961 359.82V369.24C523.961 369.48 523.894 369.667 523.761 369.8C523.627 369.933 523.441 370 523.201 370ZM536.361 370.12C535.414 370.12 534.567 369.927 533.821 369.54C533.074 369.14 532.481 368.56 532.041 367.8C531.614 367.04 531.401 366.113 531.401 365.02V359.82C531.401 359.607 531.474 359.427 531.621 359.28C531.767 359.133 531.947 359.06 532.161 359.06C532.387 359.06 532.574 359.133 532.721 359.28C532.867 359.427 532.941 359.607 532.941 359.82V365.02C532.941 365.847 533.094 366.527 533.401 367.06C533.721 367.593 534.147 367.993 534.681 368.26C535.227 368.527 535.841 368.66 536.521 368.66C537.174 368.66 537.761 368.533 538.281 368.28C538.814 368.027 539.234 367.68 539.541 367.24C539.847 366.8 540.001 366.3 540.001 365.74H541.101C541.061 366.58 540.827 367.333 540.401 368C539.987 368.653 539.427 369.173 538.721 369.56C538.014 369.933 537.227 370.12 536.361 370.12ZM540.761 370C540.534 370 540.347 369.933 540.201 369.8C540.067 369.653 540.001 369.46 540.001 369.22V359.82C540.001 359.593 540.067 359.413 540.201 359.28C540.347 359.133 540.534 359.06 540.761 359.06C540.987 359.06 541.174 359.133 541.321 359.28C541.467 359.413 541.541 359.593 541.541 359.82V369.22C541.541 369.46 541.467 369.653 541.321 369.8C541.174 369.933 540.987 370 540.761 370ZM547.496 370C546.963 370 546.483 369.853 546.056 369.56C545.643 369.267 545.316 368.86 545.076 368.34C544.849 367.82 544.736 367.22 544.736 366.54V355.14C544.736 354.913 544.803 354.733 544.936 354.6C545.083 354.453 545.269 354.38 545.496 354.38C545.723 354.38 545.903 354.453 546.036 354.6C546.183 354.733 546.256 354.913 546.256 355.14V366.54C546.256 367.113 546.369 367.58 546.596 367.94C546.836 368.3 547.136 368.48 547.496 368.48H547.996C548.196 368.48 548.356 368.553 548.476 368.7C548.596 368.833 548.656 369.013 548.656 369.24C548.656 369.467 548.569 369.653 548.396 369.8C548.236 369.933 548.023 370 547.756 370H547.496ZM555.135 370.1C554.055 370.1 553.095 369.867 552.255 369.4C551.428 368.92 550.775 368.26 550.295 367.42C549.828 366.58 549.595 365.62 549.595 364.54C549.595 363.447 549.815 362.487 550.255 361.66C550.708 360.82 551.328 360.16 552.115 359.68C552.902 359.2 553.808 358.96 554.835 358.96C555.848 358.96 556.728 359.193 557.475 359.66C558.235 360.113 558.822 360.747 559.235 361.56C559.648 362.373 559.855 363.3 559.855 364.34C559.855 364.553 559.788 364.727 559.655 364.86C559.522 364.98 559.348 365.04 559.135 365.04H550.635V363.76H559.295L558.435 364.38C558.448 363.607 558.308 362.913 558.015 362.3C557.722 361.687 557.302 361.207 556.755 360.86C556.222 360.513 555.582 360.34 554.835 360.34C554.075 360.34 553.408 360.52 552.835 360.88C552.262 361.24 551.815 361.74 551.495 362.38C551.188 363.007 551.035 363.727 551.035 364.54C551.035 365.353 551.208 366.073 551.555 366.7C551.915 367.327 552.402 367.82 553.015 368.18C553.628 368.54 554.335 368.72 555.135 368.72C555.615 368.72 556.095 368.64 556.575 368.48C557.068 368.307 557.462 368.093 557.755 367.84C557.902 367.72 558.068 367.66 558.255 367.66C558.442 367.647 558.602 367.693 558.735 367.8C558.908 367.96 558.995 368.133 558.995 368.32C559.008 368.507 558.935 368.667 558.775 368.8C558.335 369.173 557.775 369.487 557.095 369.74C556.415 369.98 555.762 370.1 555.135 370.1ZM566.28 370.1C565.493 370.1 564.713 369.967 563.94 369.7C563.167 369.433 562.54 369.033 562.06 368.5C561.913 368.34 561.853 368.16 561.88 367.96C561.907 367.76 562.007 367.587 562.18 367.44C562.367 367.307 562.56 367.253 562.76 367.28C562.96 367.307 563.127 367.393 563.26 367.54C563.58 367.913 564 368.2 564.52 368.4C565.053 368.6 565.64 368.7 566.28 368.7C567.267 368.7 567.98 368.533 568.42 368.2C568.86 367.853 569.087 367.44 569.1 366.96C569.1 366.48 568.873 366.087 568.42 365.78C567.967 365.46 567.22 365.213 566.18 365.04C564.833 364.827 563.847 364.453 563.22 363.92C562.593 363.387 562.28 362.753 562.28 362.02C562.28 361.34 562.46 360.773 562.82 360.32C563.18 359.867 563.66 359.527 564.26 359.3C564.86 359.073 565.52 358.96 566.24 358.96C567.133 358.96 567.9 359.113 568.54 359.42C569.193 359.727 569.72 360.14 570.12 360.66C570.253 360.833 570.307 361.013 570.28 361.2C570.253 361.387 570.147 361.54 569.96 361.66C569.8 361.753 569.613 361.787 569.4 361.76C569.2 361.72 569.027 361.62 568.88 361.46C568.547 361.073 568.16 360.793 567.72 360.62C567.28 360.433 566.773 360.34 566.2 360.34C565.467 360.34 564.88 360.493 564.44 360.8C564 361.093 563.78 361.467 563.78 361.92C563.78 362.227 563.86 362.493 564.02 362.72C564.193 362.947 564.48 363.147 564.88 363.32C565.293 363.493 565.867 363.64 566.6 363.76C567.6 363.92 568.387 364.16 568.96 364.48C569.547 364.787 569.96 365.153 570.2 365.58C570.453 365.993 570.58 366.447 570.58 366.94C570.58 367.567 570.393 368.12 570.02 368.6C569.66 369.067 569.153 369.433 568.5 369.7C567.86 369.967 567.12 370.1 566.28 370.1ZM581.581 370C581.407 370 581.254 369.953 581.121 369.86C580.987 369.767 580.894 369.647 580.841 369.5L577.721 360.14C577.641 359.807 577.647 359.547 577.741 359.36C577.834 359.16 578.021 359.06 578.301 359.06C578.474 359.06 578.627 359.107 578.761 359.2C578.894 359.293 578.994 359.44 579.061 359.64L581.841 368.14H581.401L583.981 359.66C584.034 359.487 584.121 359.347 584.241 359.24C584.374 359.12 584.541 359.06 584.741 359.06C584.941 359.06 585.101 359.113 585.221 359.22C585.354 359.327 585.447 359.473 585.501 359.66L587.961 367.94H587.621L590.341 359.64C590.474 359.253 590.721 359.06 591.081 359.06C591.374 359.06 591.574 359.173 591.681 359.4C591.787 359.613 591.787 359.86 591.681 360.14L588.561 369.5C588.507 369.647 588.414 369.767 588.281 369.86C588.161 369.953 588.014 370 587.841 370C587.667 370 587.507 369.953 587.361 369.86C587.227 369.767 587.141 369.647 587.101 369.5L584.581 361.14H584.821L582.301 369.5C582.247 369.66 582.154 369.787 582.021 369.88C581.887 369.96 581.741 370 581.581 370ZM594.685 365.54C594.445 365.54 594.252 365.467 594.105 365.32C593.972 365.173 593.905 364.987 593.905 364.76V355.16C593.905 354.92 593.972 354.733 594.105 354.6C594.252 354.453 594.445 354.38 594.685 354.38C594.912 354.38 595.092 354.453 595.225 354.6C595.372 354.733 595.445 354.92 595.445 355.16V364.76C595.445 364.987 595.372 365.173 595.225 365.32C595.092 365.467 594.912 365.54 594.685 365.54ZM603.285 370C603.059 370 602.872 369.927 602.725 369.78C602.579 369.633 602.505 369.453 602.505 369.24V364.04C602.505 363.213 602.345 362.533 602.025 362C601.719 361.467 601.292 361.067 600.745 360.8C600.212 360.533 599.605 360.4 598.925 360.4C598.272 360.4 597.679 360.527 597.145 360.78C596.625 361.033 596.212 361.38 595.905 361.82C595.599 362.26 595.445 362.76 595.445 363.32H594.345C594.372 362.48 594.599 361.733 595.025 361.08C595.452 360.413 596.019 359.893 596.725 359.52C597.432 359.133 598.219 358.94 599.085 358.94C600.032 358.94 600.879 359.14 601.625 359.54C602.372 359.927 602.959 360.5 603.385 361.26C603.825 362.02 604.045 362.947 604.045 364.04V369.24C604.045 369.453 603.972 369.633 603.825 369.78C603.679 369.927 603.499 370 603.285 370ZM594.685 370C594.445 370 594.252 369.933 594.105 369.8C593.972 369.653 593.905 369.467 593.905 369.24V359.84C593.905 359.6 593.972 359.413 594.105 359.28C594.252 359.133 594.445 359.06 594.685 359.06C594.912 359.06 595.092 359.133 595.225 359.28C595.372 359.413 595.445 359.6 595.445 359.84V369.24C595.445 369.467 595.372 369.653 595.225 369.8C595.092 369.933 594.912 370 594.685 370ZM608.541 370C608.301 370 608.107 369.933 607.961 369.8C607.827 369.653 607.761 369.46 607.761 369.22V359.84C607.761 359.6 607.827 359.413 607.961 359.28C608.107 359.133 608.301 359.06 608.541 359.06C608.767 359.06 608.947 359.133 609.081 359.28C609.227 359.413 609.301 359.6 609.301 359.84V369.22C609.301 369.46 609.227 369.653 609.081 369.8C608.947 369.933 608.767 370 608.541 370ZM608.521 356.98C608.227 356.98 607.974 356.873 607.761 356.66C607.547 356.447 607.441 356.187 607.441 355.88C607.441 355.547 607.547 355.287 607.761 355.1C607.987 354.9 608.247 354.8 608.541 354.8C608.821 354.8 609.067 354.9 609.281 355.1C609.507 355.287 609.621 355.547 609.621 355.88C609.621 356.187 609.514 356.447 609.301 356.66C609.087 356.873 608.827 356.98 608.521 356.98ZM618.102 370.1C617.049 370.1 616.109 369.86 615.282 369.38C614.469 368.887 613.822 368.22 613.342 367.38C612.875 366.54 612.642 365.593 612.642 364.54C612.642 363.473 612.869 362.52 613.322 361.68C613.775 360.84 614.395 360.18 615.182 359.7C615.969 359.207 616.875 358.96 617.902 358.96C618.715 358.96 619.462 359.12 620.142 359.44C620.835 359.76 621.442 360.24 621.962 360.88C622.109 361.04 622.162 361.213 622.122 361.4C622.082 361.573 621.969 361.727 621.782 361.86C621.635 361.967 621.469 362.007 621.282 361.98C621.109 361.94 620.955 361.84 620.822 361.68C620.049 360.8 619.075 360.36 617.902 360.36C617.155 360.36 616.495 360.54 615.922 360.9C615.362 361.26 614.922 361.753 614.602 362.38C614.295 363.007 614.142 363.727 614.142 364.54C614.142 365.34 614.309 366.053 614.642 366.68C614.975 367.307 615.442 367.8 616.042 368.16C616.642 368.52 617.329 368.7 618.102 368.7C618.622 368.7 619.095 368.633 619.522 368.5C619.962 368.353 620.349 368.133 620.682 367.84C620.842 367.707 621.009 367.633 621.182 367.62C621.355 367.607 621.515 367.66 621.662 367.78C621.822 367.927 621.909 368.093 621.922 368.28C621.949 368.467 621.889 368.627 621.742 368.76C620.769 369.653 619.555 370.1 618.102 370.1ZM625.896 365.54C625.656 365.54 625.463 365.467 625.316 365.32C625.183 365.173 625.116 364.987 625.116 364.76V355.16C625.116 354.92 625.183 354.733 625.316 354.6C625.463 354.453 625.656 354.38 625.896 354.38C626.123 354.38 626.303 354.453 626.436 354.6C626.583 354.733 626.656 354.92 626.656 355.16V364.76C626.656 364.987 626.583 365.173 626.436 365.32C626.303 365.467 626.123 365.54 625.896 365.54ZM634.496 370C634.27 370 634.083 369.927 633.936 369.78C633.79 369.633 633.716 369.453 633.716 369.24V364.04C633.716 363.213 633.556 362.533 633.236 362C632.93 361.467 632.503 361.067 631.956 360.8C631.423 360.533 630.816 360.4 630.136 360.4C629.483 360.4 628.89 360.527 628.356 360.78C627.836 361.033 627.423 361.38 627.116 361.82C626.81 362.26 626.656 362.76 626.656 363.32H625.556C625.583 362.48 625.81 361.733 626.236 361.08C626.663 360.413 627.23 359.893 627.936 359.52C628.643 359.133 629.43 358.94 630.296 358.94C631.243 358.94 632.09 359.14 632.836 359.54C633.583 359.927 634.17 360.5 634.596 361.26C635.036 362.02 635.256 362.947 635.256 364.04V369.24C635.256 369.453 635.183 369.633 635.036 369.78C634.89 369.927 634.71 370 634.496 370ZM625.896 370C625.656 370 625.463 369.933 625.316 369.8C625.183 369.653 625.116 369.467 625.116 369.24V359.84C625.116 359.6 625.183 359.413 625.316 359.28C625.463 359.133 625.656 359.06 625.896 359.06C626.123 359.06 626.303 359.133 626.436 359.28C626.583 359.413 626.656 359.6 626.656 359.84V369.24C626.656 369.467 626.583 369.653 626.436 369.8C626.303 369.933 626.123 370 625.896 370ZM646.871 370C646.338 370 645.858 369.853 645.431 369.56C645.018 369.267 644.691 368.86 644.451 368.34C644.224 367.82 644.111 367.22 644.111 366.54V355.14C644.111 354.913 644.178 354.733 644.311 354.6C644.458 354.453 644.644 354.38 644.871 354.38C645.098 354.38 645.278 354.453 645.411 354.6C645.558 354.733 645.631 354.913 645.631 355.14V366.54C645.631 367.113 645.744 367.58 645.971 367.94C646.211 368.3 646.511 368.48 646.871 368.48H647.371C647.571 368.48 647.731 368.553 647.851 368.7C647.971 368.833 648.031 369.013 648.031 369.24C648.031 369.467 647.944 369.653 647.771 369.8C647.611 369.933 647.398 370 647.131 370H646.871ZM651.255 370C651.015 370 650.822 369.933 650.675 369.8C650.542 369.653 650.475 369.46 650.475 369.22V359.84C650.475 359.6 650.542 359.413 650.675 359.28C650.822 359.133 651.015 359.06 651.255 359.06C651.482 359.06 651.662 359.133 651.795 359.28C651.942 359.413 652.015 359.6 652.015 359.84V369.22C652.015 369.46 651.942 369.653 651.795 369.8C651.662 369.933 651.482 370 651.255 370ZM651.235 356.98C650.942 356.98 650.689 356.873 650.475 356.66C650.262 356.447 650.155 356.187 650.155 355.88C650.155 355.547 650.262 355.287 650.475 355.1C650.702 354.9 650.962 354.8 651.255 354.8C651.535 354.8 651.782 354.9 651.995 355.1C652.222 355.287 652.335 355.547 652.335 355.88C652.335 356.187 652.229 356.447 652.015 356.66C651.802 356.873 651.542 356.98 651.235 356.98ZM665.317 370C665.09 370 664.903 369.927 664.757 369.78C664.61 369.633 664.537 369.453 664.537 369.24V364.04C664.537 363.213 664.377 362.533 664.057 362C663.75 361.467 663.323 361.067 662.777 360.8C662.243 360.533 661.637 360.4 660.957 360.4C660.303 360.4 659.71 360.527 659.177 360.78C658.657 361.033 658.243 361.38 657.937 361.82C657.63 362.26 657.477 362.76 657.477 363.32H656.377C656.403 362.48 656.63 361.733 657.057 361.08C657.483 360.413 658.05 359.893 658.757 359.52C659.463 359.133 660.25 358.94 661.117 358.94C662.063 358.94 662.91 359.14 663.657 359.54C664.403 359.927 664.99 360.5 665.417 361.26C665.857 362.02 666.077 362.947 666.077 364.04V369.24C666.077 369.453 666.003 369.633 665.857 369.78C665.71 369.927 665.53 370 665.317 370ZM656.717 370C656.477 370 656.283 369.933 656.137 369.8C656.003 369.653 655.937 369.467 655.937 369.24V359.84C655.937 359.6 656.003 359.413 656.137 359.28C656.283 359.133 656.477 359.06 656.717 359.06C656.943 359.06 657.123 359.133 657.257 359.28C657.403 359.413 657.477 359.6 657.477 359.84V369.24C657.477 369.467 657.403 369.653 657.257 369.8C657.123 369.933 656.943 370 656.717 370ZM673.752 370C673.045 370 672.412 369.833 671.852 369.5C671.305 369.167 670.872 368.713 670.552 368.14C670.232 367.553 670.072 366.887 670.072 366.14V356.36C670.072 356.133 670.139 355.947 670.272 355.8C670.419 355.653 670.605 355.58 670.832 355.58C671.059 355.58 671.245 355.653 671.392 355.8C671.539 355.947 671.612 356.133 671.612 356.36V366.14C671.612 366.82 671.812 367.38 672.212 367.82C672.612 368.247 673.125 368.46 673.752 368.46H674.292C674.505 368.46 674.679 368.533 674.812 368.68C674.945 368.827 675.012 369.013 675.012 369.24C675.012 369.467 674.932 369.653 674.772 369.8C674.612 369.933 674.412 370 674.172 370H673.752ZM668.772 360.8C668.572 360.8 668.405 360.74 668.272 360.62C668.139 360.487 668.072 360.327 668.072 360.14C668.072 359.94 668.139 359.78 668.272 359.66C668.405 359.527 668.572 359.46 668.772 359.46H673.872C674.072 359.46 674.239 359.527 674.372 359.66C674.505 359.78 674.572 359.94 674.572 360.14C674.572 360.327 674.505 360.487 674.372 360.62C674.239 360.74 674.072 360.8 673.872 360.8H668.772ZM684.738 370C684.538 370 684.365 369.933 684.218 369.8C684.071 369.653 683.998 369.46 683.998 369.22V359.08C683.998 358.147 684.158 357.327 684.478 356.62C684.798 355.913 685.271 355.367 685.898 354.98C686.525 354.58 687.291 354.38 688.198 354.38C688.425 354.38 688.611 354.447 688.758 354.58C688.905 354.713 688.978 354.88 688.978 355.08C688.978 355.28 688.905 355.447 688.758 355.58C688.611 355.713 688.425 355.78 688.198 355.78C687.598 355.78 687.098 355.92 686.698 356.2C686.311 356.467 686.018 356.847 685.818 357.34C685.631 357.82 685.538 358.373 685.538 359V369.22C685.538 369.46 685.465 369.653 685.318 369.8C685.185 369.933 684.991 370 684.738 370ZM682.718 360.8C682.505 360.8 682.331 360.74 682.198 360.62C682.078 360.487 682.018 360.327 682.018 360.14C682.018 359.94 682.078 359.78 682.198 359.66C682.331 359.527 682.505 359.46 682.718 359.46H687.938C688.151 359.46 688.318 359.527 688.438 359.66C688.571 359.78 688.638 359.94 688.638 360.14C688.638 360.327 688.571 360.487 688.438 360.62C688.318 360.74 688.151 360.8 687.938 360.8H682.718ZM695.292 370.1C694.225 370.1 693.272 369.86 692.432 369.38C691.592 368.9 690.932 368.24 690.452 367.4C689.972 366.56 689.732 365.607 689.732 364.54C689.732 363.46 689.972 362.5 690.452 361.66C690.932 360.82 691.592 360.16 692.432 359.68C693.272 359.2 694.225 358.96 695.292 358.96C696.358 358.96 697.305 359.2 698.132 359.68C698.972 360.16 699.632 360.82 700.112 361.66C700.592 362.5 700.838 363.46 700.852 364.54C700.852 365.607 700.605 366.56 700.112 367.4C699.632 368.24 698.972 368.9 698.132 369.38C697.305 369.86 696.358 370.1 695.292 370.1ZM695.292 368.7C696.065 368.7 696.758 368.52 697.372 368.16C697.985 367.8 698.465 367.307 698.812 366.68C699.158 366.053 699.332 365.34 699.332 364.54C699.332 363.74 699.158 363.027 698.812 362.4C698.465 361.76 697.985 361.26 697.372 360.9C696.758 360.54 696.065 360.36 695.292 360.36C694.518 360.36 693.825 360.54 693.212 360.9C692.598 361.26 692.112 361.76 691.752 362.4C691.405 363.027 691.232 363.74 691.232 364.54C691.232 365.34 691.405 366.053 691.752 366.68C692.112 367.307 692.598 367.8 693.212 368.16C693.825 368.52 694.518 368.7 695.292 368.7ZM704.487 363.26C704.527 362.433 704.74 361.693 705.127 361.04C705.527 360.387 706.04 359.873 706.667 359.5C707.307 359.127 708.014 358.94 708.787 358.94C709.4 358.94 709.874 359.027 710.207 359.2C710.54 359.373 710.667 359.627 710.587 359.96C710.534 360.16 710.44 360.293 710.307 360.36C710.187 360.427 710.034 360.453 709.847 360.44C709.674 360.427 709.474 360.413 709.247 360.4C708.5 360.333 707.834 360.413 707.247 360.64C706.674 360.853 706.214 361.187 705.867 361.64C705.534 362.093 705.367 362.633 705.367 363.26H704.487ZM704.607 370C704.367 370 704.18 369.933 704.047 369.8C703.914 369.667 703.847 369.48 703.847 369.24V359.82C703.847 359.58 703.914 359.393 704.047 359.26C704.18 359.127 704.367 359.06 704.607 359.06C704.847 359.06 705.034 359.127 705.167 359.26C705.3 359.393 705.367 359.58 705.367 359.82V369.24C705.367 369.48 705.3 369.667 705.167 369.8C705.034 369.933 704.847 370 704.607 370ZM721.346 370C721.173 370 721.02 369.953 720.886 369.86C720.753 369.767 720.66 369.647 720.606 369.5L717.486 360.14C717.406 359.807 717.413 359.547 717.506 359.36C717.6 359.16 717.786 359.06 718.066 359.06C718.24 359.06 718.393 359.107 718.526 359.2C718.66 359.293 718.76 359.44 718.826 359.64L721.606 368.14H721.166L723.746 359.66C723.8 359.487 723.886 359.347 724.006 359.24C724.14 359.12 724.306 359.06 724.506 359.06C724.706 359.06 724.866 359.113 724.986 359.22C725.12 359.327 725.213 359.473 725.266 359.66L727.726 367.94H727.386L730.106 359.64C730.24 359.253 730.486 359.06 730.846 359.06C731.14 359.06 731.34 359.173 731.446 359.4C731.553 359.613 731.553 359.86 731.446 360.14L728.326 369.5C728.273 369.647 728.18 369.767 728.046 369.86C727.926 369.953 727.78 370 727.606 370C727.433 370 727.273 369.953 727.126 369.86C726.993 369.767 726.906 369.647 726.866 369.5L724.346 361.14H724.586L722.066 369.5C722.013 369.66 721.92 369.787 721.786 369.88C721.653 369.96 721.506 370 721.346 370ZM738.24 370.1C737.16 370.1 736.2 369.867 735.36 369.4C734.534 368.92 733.88 368.26 733.4 367.42C732.934 366.58 732.7 365.62 732.7 364.54C732.7 363.447 732.92 362.487 733.36 361.66C733.814 360.82 734.434 360.16 735.22 359.68C736.007 359.2 736.914 358.96 737.94 358.96C738.954 358.96 739.834 359.193 740.58 359.66C741.34 360.113 741.927 360.747 742.34 361.56C742.754 362.373 742.96 363.3 742.96 364.34C742.96 364.553 742.894 364.727 742.76 364.86C742.627 364.98 742.454 365.04 742.24 365.04H733.74V363.76H742.4L741.54 364.38C741.554 363.607 741.414 362.913 741.12 362.3C740.827 361.687 740.407 361.207 739.86 360.86C739.327 360.513 738.687 360.34 737.94 360.34C737.18 360.34 736.514 360.52 735.94 360.88C735.367 361.24 734.92 361.74 734.6 362.38C734.294 363.007 734.14 363.727 734.14 364.54C734.14 365.353 734.314 366.073 734.66 366.7C735.02 367.327 735.507 367.82 736.12 368.18C736.734 368.54 737.44 368.72 738.24 368.72C738.72 368.72 739.2 368.64 739.68 368.48C740.174 368.307 740.567 368.093 740.86 367.84C741.007 367.72 741.174 367.66 741.36 367.66C741.547 367.647 741.707 367.693 741.84 367.8C742.014 367.96 742.1 368.133 742.1 368.32C742.114 368.507 742.04 368.667 741.88 368.8C741.44 369.173 740.88 369.487 740.2 369.74C739.52 369.98 738.867 370.1 738.24 370.1ZM747.926 370C747.392 370 746.912 369.853 746.486 369.56C746.072 369.267 745.746 368.86 745.506 368.34C745.279 367.82 745.166 367.22 745.166 366.54V355.14C745.166 354.913 745.232 354.733 745.366 354.6C745.512 354.453 745.699 354.38 745.926 354.38C746.152 354.38 746.332 354.453 746.466 354.6C746.612 354.733 746.686 354.913 746.686 355.14V366.54C746.686 367.113 746.799 367.58 747.026 367.94C747.266 368.3 747.566 368.48 747.926 368.48H748.426C748.626 368.48 748.786 368.553 748.906 368.7C749.026 368.833 749.086 369.013 749.086 369.24C749.086 369.467 748.999 369.653 748.826 369.8C748.666 369.933 748.452 370 748.186 370H747.926ZM753.57 370C753.037 370 752.557 369.853 752.13 369.56C751.717 369.267 751.39 368.86 751.15 368.34C750.923 367.82 750.81 367.22 750.81 366.54V355.14C750.81 354.913 750.877 354.733 751.01 354.6C751.157 354.453 751.343 354.38 751.57 354.38C751.797 354.38 751.977 354.453 752.11 354.6C752.257 354.733 752.33 354.913 752.33 355.14V366.54C752.33 367.113 752.443 367.58 752.67 367.94C752.91 368.3 753.21 368.48 753.57 368.48H754.07C754.27 368.48 754.43 368.553 754.55 368.7C754.67 368.833 754.73 369.013 754.73 369.24C754.73 369.467 754.643 369.653 754.47 369.8C754.31 369.933 754.097 370 753.83 370H753.57ZM756.575 365.3C756.361 365.3 756.181 365.227 756.035 365.08C755.888 364.933 755.815 364.753 755.815 364.54C755.815 364.313 755.888 364.127 756.035 363.98C756.181 363.833 756.361 363.76 756.575 363.76H761.275C761.501 363.76 761.688 363.833 761.835 363.98C761.981 364.127 762.055 364.313 762.055 364.54C762.055 364.753 761.981 364.933 761.835 365.08C761.688 365.227 761.501 365.3 761.275 365.3H756.575ZM765.927 366.34L764.987 365.32L771.827 359.14C771.987 358.993 772.154 358.927 772.327 358.94C772.501 358.94 772.661 359.02 772.807 359.18C772.954 359.34 773.021 359.513 773.007 359.7C773.007 359.873 772.927 360.027 772.767 360.16L765.927 366.34ZM765.427 370C765.201 370 765.014 369.933 764.867 369.8C764.734 369.653 764.667 369.467 764.667 369.24V355.14C764.667 354.913 764.734 354.733 764.867 354.6C765.014 354.453 765.201 354.38 765.427 354.38C765.654 354.38 765.834 354.453 765.967 354.6C766.114 354.733 766.187 354.913 766.187 355.14V369.24C766.187 369.467 766.114 369.653 765.967 369.8C765.834 369.933 765.654 370 765.427 370ZM772.827 369.9C772.654 370.047 772.474 370.107 772.287 370.08C772.101 370.067 771.941 369.973 771.807 369.8L767.347 364.32L768.427 363.36L772.927 368.9C773.061 369.06 773.121 369.233 773.107 369.42C773.094 369.593 773.001 369.753 772.827 369.9ZM785.493 370C785.266 370 785.079 369.927 784.933 369.78C784.786 369.633 784.713 369.453 784.713 369.24V364.04C784.713 363.213 784.553 362.533 784.233 362C783.926 361.467 783.499 361.067 782.953 360.8C782.419 360.533 781.813 360.4 781.133 360.4C780.479 360.4 779.886 360.527 779.353 360.78C778.833 361.033 778.419 361.38 778.113 361.82C777.806 362.26 777.653 362.76 777.653 363.32H776.553C776.579 362.48 776.806 361.733 777.233 361.08C777.659 360.413 778.226 359.893 778.933 359.52C779.639 359.133 780.426 358.94 781.293 358.94C782.239 358.94 783.086 359.14 783.833 359.54C784.579 359.927 785.166 360.5 785.593 361.26C786.033 362.02 786.253 362.947 786.253 364.04V369.24C786.253 369.453 786.179 369.633 786.033 369.78C785.886 369.927 785.706 370 785.493 370ZM776.893 370C776.653 370 776.459 369.933 776.313 369.8C776.179 369.653 776.113 369.467 776.113 369.24V359.84C776.113 359.6 776.179 359.413 776.313 359.28C776.459 359.133 776.653 359.06 776.893 359.06C777.119 359.06 777.299 359.133 777.433 359.28C777.579 359.413 777.653 359.6 777.653 359.84V369.24C777.653 369.467 777.579 369.653 777.433 369.8C777.299 369.933 777.119 370 776.893 370ZM794.628 370.1C793.561 370.1 792.608 369.86 791.768 369.38C790.928 368.9 790.268 368.24 789.788 367.4C789.308 366.56 789.068 365.607 789.068 364.54C789.068 363.46 789.308 362.5 789.788 361.66C790.268 360.82 790.928 360.16 791.768 359.68C792.608 359.2 793.561 358.96 794.628 358.96C795.694 358.96 796.641 359.2 797.468 359.68C798.308 360.16 798.968 360.82 799.448 361.66C799.928 362.5 800.174 363.46 800.188 364.54C800.188 365.607 799.941 366.56 799.448 367.4C798.968 368.24 798.308 368.9 797.468 369.38C796.641 369.86 795.694 370.1 794.628 370.1ZM794.628 368.7C795.401 368.7 796.094 368.52 796.708 368.16C797.321 367.8 797.801 367.307 798.148 366.68C798.494 366.053 798.668 365.34 798.668 364.54C798.668 363.74 798.494 363.027 798.148 362.4C797.801 361.76 797.321 361.26 796.708 360.9C796.094 360.54 795.401 360.36 794.628 360.36C793.854 360.36 793.161 360.54 792.548 360.9C791.934 361.26 791.448 361.76 791.088 362.4C790.741 363.027 790.568 363.74 790.568 364.54C790.568 365.34 790.741 366.053 791.088 366.68C791.448 367.307 791.934 367.8 792.548 368.16C793.161 368.52 793.854 368.7 794.628 368.7ZM805.057 370C804.884 370 804.731 369.953 804.597 369.86C804.464 369.767 804.371 369.647 804.317 369.5L801.197 360.14C801.117 359.807 801.124 359.547 801.217 359.36C801.311 359.16 801.497 359.06 801.777 359.06C801.951 359.06 802.104 359.107 802.237 359.2C802.371 359.293 802.471 359.44 802.537 359.64L805.317 368.14H804.877L807.457 359.66C807.511 359.487 807.597 359.347 807.717 359.24C807.851 359.12 808.017 359.06 808.217 359.06C808.417 359.06 808.577 359.113 808.697 359.22C808.831 359.327 808.924 359.473 808.977 359.66L811.437 367.94H811.097L813.817 359.64C813.951 359.253 814.197 359.06 814.557 359.06C814.851 359.06 815.051 359.173 815.157 359.4C815.264 359.613 815.264 359.86 815.157 360.14L812.037 369.5C811.984 369.647 811.891 369.767 811.757 369.86C811.637 369.953 811.491 370 811.317 370C811.144 370 810.984 369.953 810.837 369.86C810.704 369.767 810.617 369.647 810.577 369.5L808.057 361.14H808.297L805.777 369.5C805.724 369.66 805.631 369.787 805.497 369.88C805.364 369.96 805.217 370 805.057 370ZM826.762 370C826.535 370 826.349 369.927 826.202 369.78C826.055 369.633 825.982 369.453 825.982 369.24V364.04C825.982 363.213 825.822 362.533 825.502 362C825.195 361.467 824.769 361.067 824.222 360.8C823.689 360.533 823.082 360.4 822.402 360.4C821.749 360.4 821.155 360.527 820.622 360.78C820.102 361.033 819.689 361.38 819.382 361.82C819.075 362.26 818.922 362.76 818.922 363.32H817.822C817.849 362.48 818.075 361.733 818.502 361.08C818.929 360.413 819.495 359.893 820.202 359.52C820.909 359.133 821.695 358.94 822.562 358.94C823.509 358.94 824.355 359.14 825.102 359.54C825.849 359.927 826.435 360.5 826.862 361.26C827.302 362.02 827.522 362.947 827.522 364.04V369.24C827.522 369.453 827.449 369.633 827.302 369.78C827.155 369.927 826.975 370 826.762 370ZM818.162 370C817.922 370 817.729 369.933 817.582 369.8C817.449 369.653 817.382 369.467 817.382 369.24V359.84C817.382 359.6 817.449 359.413 817.582 359.28C817.729 359.133 817.922 359.06 818.162 359.06C818.389 359.06 818.569 359.133 818.702 359.28C818.849 359.413 818.922 359.6 818.922 359.84V369.24C818.922 369.467 818.849 369.653 818.702 369.8C818.569 369.933 818.389 370 818.162 370ZM842.317 370.1C841.277 370.1 840.337 369.86 839.497 369.38C838.67 368.9 838.01 368.247 837.517 367.42C837.037 366.58 836.79 365.64 836.777 364.6V355.16C836.777 354.92 836.843 354.733 836.977 354.6C837.123 354.453 837.317 354.38 837.557 354.38C837.783 354.38 837.963 354.453 838.097 354.6C838.243 354.733 838.317 354.92 838.317 355.16V361.04C838.757 360.413 839.337 359.913 840.057 359.54C840.79 359.153 841.603 358.96 842.497 358.96C843.523 358.96 844.443 359.207 845.257 359.7C846.07 360.18 846.71 360.84 847.177 361.68C847.657 362.52 847.897 363.467 847.897 364.52C847.897 365.587 847.65 366.54 847.157 367.38C846.677 368.22 846.017 368.887 845.177 369.38C844.337 369.86 843.383 370.1 842.317 370.1ZM842.317 368.7C843.09 368.7 843.783 368.52 844.397 368.16C845.01 367.787 845.49 367.287 845.837 366.66C846.197 366.033 846.377 365.32 846.377 364.52C846.377 363.733 846.197 363.027 845.837 362.4C845.49 361.76 845.01 361.26 844.397 360.9C843.783 360.54 843.09 360.36 842.317 360.36C841.557 360.36 840.87 360.54 840.257 360.9C839.643 361.26 839.163 361.76 838.817 362.4C838.47 363.027 838.297 363.733 838.297 364.52C838.297 365.32 838.47 366.033 838.817 366.66C839.163 367.287 839.643 367.787 840.257 368.16C840.87 368.52 841.557 368.7 842.317 368.7ZM855.877 370.1C854.797 370.1 853.837 369.867 852.997 369.4C852.171 368.92 851.517 368.26 851.037 367.42C850.571 366.58 850.337 365.62 850.337 364.54C850.337 363.447 850.557 362.487 850.997 361.66C851.451 360.82 852.071 360.16 852.857 359.68C853.644 359.2 854.551 358.96 855.577 358.96C856.591 358.96 857.471 359.193 858.217 359.66C858.977 360.113 859.564 360.747 859.977 361.56C860.391 362.373 860.597 363.3 860.597 364.34C860.597 364.553 860.531 364.727 860.397 364.86C860.264 364.98 860.091 365.04 859.877 365.04H851.377V363.76H860.037L859.177 364.38C859.191 363.607 859.051 362.913 858.757 362.3C858.464 361.687 858.044 361.207 857.497 360.86C856.964 360.513 856.324 360.34 855.577 360.34C854.817 360.34 854.151 360.52 853.577 360.88C853.004 361.24 852.557 361.74 852.237 362.38C851.931 363.007 851.777 363.727 851.777 364.54C851.777 365.353 851.951 366.073 852.297 366.7C852.657 367.327 853.144 367.82 853.757 368.18C854.371 368.54 855.077 368.72 855.877 368.72C856.357 368.72 856.837 368.64 857.317 368.48C857.811 368.307 858.204 368.093 858.497 367.84C858.644 367.72 858.811 367.66 858.997 367.66C859.184 367.647 859.344 367.693 859.477 367.8C859.651 367.96 859.737 368.133 859.737 368.32C859.751 368.507 859.677 368.667 859.517 368.8C859.077 369.173 858.517 369.487 857.837 369.74C857.157 369.98 856.504 370.1 855.877 370.1ZM867.022 370.1C866.236 370.1 865.456 369.967 864.682 369.7C863.909 369.433 863.282 369.033 862.802 368.5C862.656 368.34 862.596 368.16 862.622 367.96C862.649 367.76 862.749 367.587 862.922 367.44C863.109 367.307 863.302 367.253 863.502 367.28C863.702 367.307 863.869 367.393 864.002 367.54C864.322 367.913 864.742 368.2 865.262 368.4C865.796 368.6 866.382 368.7 867.022 368.7C868.009 368.7 868.722 368.533 869.162 368.2C869.602 367.853 869.829 367.44 869.842 366.96C869.842 366.48 869.616 366.087 869.162 365.78C868.709 365.46 867.962 365.213 866.922 365.04C865.576 364.827 864.589 364.453 863.962 363.92C863.336 363.387 863.022 362.753 863.022 362.02C863.022 361.34 863.202 360.773 863.562 360.32C863.922 359.867 864.402 359.527 865.002 359.3C865.602 359.073 866.262 358.96 866.982 358.96C867.876 358.96 868.642 359.113 869.282 359.42C869.936 359.727 870.462 360.14 870.862 360.66C870.996 360.833 871.049 361.013 871.022 361.2C870.996 361.387 870.889 361.54 870.702 361.66C870.542 361.753 870.356 361.787 870.142 361.76C869.942 361.72 869.769 361.62 869.622 361.46C869.289 361.073 868.902 360.793 868.462 360.62C868.022 360.433 867.516 360.34 866.942 360.34C866.209 360.34 865.622 360.493 865.182 360.8C864.742 361.093 864.522 361.467 864.522 361.92C864.522 362.227 864.602 362.493 864.762 362.72C864.936 362.947 865.222 363.147 865.622 363.32C866.036 363.493 866.609 363.64 867.342 363.76C868.342 363.92 869.129 364.16 869.702 364.48C870.289 364.787 870.702 365.153 870.942 365.58C871.196 365.993 871.322 366.447 871.322 366.94C871.322 367.567 871.136 368.12 870.762 368.6C870.402 369.067 869.896 369.433 869.242 369.7C868.602 369.967 867.862 370.1 867.022 370.1ZM878.264 370C877.557 370 876.924 369.833 876.364 369.5C875.817 369.167 875.384 368.713 875.064 368.14C874.744 367.553 874.584 366.887 874.584 366.14V356.36C874.584 356.133 874.65 355.947 874.784 355.8C874.93 355.653 875.117 355.58 875.344 355.58C875.57 355.58 875.757 355.653 875.904 355.8C876.05 355.947 876.124 356.133 876.124 356.36V366.14C876.124 366.82 876.324 367.38 876.724 367.82C877.124 368.247 877.637 368.46 878.264 368.46H878.804C879.017 368.46 879.19 368.533 879.324 368.68C879.457 368.827 879.524 369.013 879.524 369.24C879.524 369.467 879.444 369.653 879.284 369.8C879.124 369.933 878.924 370 878.684 370H878.264ZM873.284 360.8C873.084 360.8 872.917 360.74 872.784 360.62C872.65 360.487 872.584 360.327 872.584 360.14C872.584 359.94 872.65 359.78 872.784 359.66C872.917 359.527 873.084 359.46 873.284 359.46H878.384C878.584 359.46 878.75 359.527 878.884 359.66C879.017 359.78 879.084 359.94 879.084 360.14C879.084 360.327 879.017 360.487 878.884 360.62C878.75 360.74 878.584 360.8 878.384 360.8H873.284ZM881.75 365.3C881.537 365.3 881.357 365.227 881.21 365.08C881.064 364.933 880.99 364.753 880.99 364.54C880.99 364.313 881.064 364.127 881.21 363.98C881.357 363.833 881.537 363.76 881.75 363.76H886.45C886.677 363.76 886.864 363.833 887.01 363.98C887.157 364.127 887.23 364.313 887.23 364.54C887.23 364.753 887.157 364.933 887.01 365.08C886.864 365.227 886.677 365.3 886.45 365.3H881.75ZM890.623 374.68C890.383 374.68 890.19 374.607 890.043 374.46C889.91 374.327 889.843 374.14 889.843 373.9V364.46C889.856 363.42 890.103 362.487 890.583 361.66C891.076 360.82 891.736 360.16 892.563 359.68C893.403 359.2 894.343 358.96 895.383 358.96C896.45 358.96 897.403 359.207 898.243 359.7C899.083 360.18 899.743 360.84 900.223 361.68C900.716 362.52 900.963 363.473 900.963 364.54C900.963 365.593 900.723 366.54 900.243 367.38C899.776 368.22 899.136 368.887 898.323 369.38C897.51 369.86 896.59 370.1 895.563 370.1C894.67 370.1 893.856 369.913 893.123 369.54C892.403 369.153 891.823 368.647 891.383 368.02V373.9C891.383 374.14 891.31 374.327 891.163 374.46C891.03 374.607 890.85 374.68 890.623 374.68ZM895.383 368.7C896.156 368.7 896.85 368.52 897.463 368.16C898.076 367.8 898.556 367.307 898.903 366.68C899.263 366.04 899.443 365.327 899.443 364.54C899.443 363.74 899.263 363.027 898.903 362.4C898.556 361.773 898.076 361.28 897.463 360.92C896.85 360.547 896.156 360.36 895.383 360.36C894.623 360.36 893.936 360.547 893.323 360.92C892.71 361.28 892.23 361.773 891.883 362.4C891.536 363.027 891.363 363.74 891.363 364.54C891.363 365.327 891.536 366.04 891.883 366.68C892.23 367.307 892.71 367.8 893.323 368.16C893.936 368.52 894.623 368.7 895.383 368.7ZM904.624 363.26C904.664 362.433 904.877 361.693 905.264 361.04C905.664 360.387 906.177 359.873 906.804 359.5C907.444 359.127 908.15 358.94 908.924 358.94C909.537 358.94 910.01 359.027 910.344 359.2C910.677 359.373 910.804 359.627 910.724 359.96C910.67 360.16 910.577 360.293 910.444 360.36C910.324 360.427 910.17 360.453 909.984 360.44C909.81 360.427 909.61 360.413 909.384 360.4C908.637 360.333 907.97 360.413 907.384 360.64C906.81 360.853 906.35 361.187 906.004 361.64C905.67 362.093 905.504 362.633 905.504 363.26H904.624ZM904.744 370C904.504 370 904.317 369.933 904.184 369.8C904.05 369.667 903.984 369.48 903.984 369.24V359.82C903.984 359.58 904.05 359.393 904.184 359.26C904.317 359.127 904.504 359.06 904.744 359.06C904.984 359.06 905.17 359.127 905.304 359.26C905.437 359.393 905.504 359.58 905.504 359.82V369.24C905.504 369.48 905.437 369.667 905.304 369.8C905.17 369.933 904.984 370 904.744 370ZM917.163 370.1C916.136 370.1 915.216 369.86 914.403 369.38C913.59 368.887 912.943 368.22 912.463 367.38C911.996 366.54 911.763 365.593 911.763 364.54C911.763 363.473 912.003 362.52 912.483 361.68C912.976 360.84 913.643 360.18 914.483 359.7C915.323 359.207 916.27 358.96 917.323 358.96C918.376 358.96 919.316 359.207 920.143 359.7C920.983 360.18 921.643 360.84 922.123 361.68C922.616 362.52 922.87 363.473 922.883 364.54L922.263 365.02C922.263 365.98 922.036 366.847 921.583 367.62C921.143 368.38 920.536 368.987 919.763 369.44C919.003 369.88 918.136 370.1 917.163 370.1ZM917.323 368.7C918.096 368.7 918.783 368.52 919.383 368.16C919.996 367.8 920.476 367.307 920.823 366.68C921.183 366.04 921.363 365.327 921.363 364.54C921.363 363.74 921.183 363.027 920.823 362.4C920.476 361.773 919.996 361.28 919.383 360.92C918.783 360.547 918.096 360.36 917.323 360.36C916.563 360.36 915.876 360.547 915.263 360.92C914.65 361.28 914.163 361.773 913.803 362.4C913.443 363.027 913.263 363.74 913.263 364.54C913.263 365.327 913.443 366.04 913.803 366.68C914.163 367.307 914.65 367.8 915.263 368.16C915.876 368.52 916.563 368.7 917.323 368.7ZM922.103 370C921.876 370 921.69 369.933 921.543 369.8C921.396 369.653 921.323 369.467 921.323 369.24V365.82L921.703 364.24L922.883 364.54V369.24C922.883 369.467 922.81 369.653 922.663 369.8C922.516 369.933 922.33 370 922.103 370ZM930.758 370.1C929.705 370.1 928.765 369.86 927.938 369.38C927.125 368.887 926.478 368.22 925.998 367.38C925.531 366.54 925.298 365.593 925.298 364.54C925.298 363.473 925.525 362.52 925.978 361.68C926.431 360.84 927.051 360.18 927.838 359.7C928.625 359.207 929.531 358.96 930.558 358.96C931.371 358.96 932.118 359.12 932.798 359.44C933.491 359.76 934.098 360.24 934.618 360.88C934.765 361.04 934.818 361.213 934.778 361.4C934.738 361.573 934.625 361.727 934.438 361.86C934.291 361.967 934.125 362.007 933.938 361.98C933.765 361.94 933.611 361.84 933.478 361.68C932.705 360.8 931.731 360.36 930.558 360.36C929.811 360.36 929.151 360.54 928.578 360.9C928.018 361.26 927.578 361.753 927.258 362.38C926.951 363.007 926.798 363.727 926.798 364.54C926.798 365.34 926.965 366.053 927.298 366.68C927.631 367.307 928.098 367.8 928.698 368.16C929.298 368.52 929.985 368.7 930.758 368.7C931.278 368.7 931.751 368.633 932.178 368.5C932.618 368.353 933.005 368.133 933.338 367.84C933.498 367.707 933.665 367.633 933.838 367.62C934.011 367.607 934.171 367.66 934.318 367.78C934.478 367.927 934.565 368.093 934.578 368.28C934.605 368.467 934.545 368.627 934.398 368.76C933.425 369.653 932.211 370.1 930.758 370.1ZM942.053 370C941.346 370 940.713 369.833 940.153 369.5C939.606 369.167 939.173 368.713 938.853 368.14C938.533 367.553 938.373 366.887 938.373 366.14V356.36C938.373 356.133 938.439 355.947 938.573 355.8C938.719 355.653 938.906 355.58 939.133 355.58C939.359 355.58 939.546 355.653 939.693 355.8C939.839 355.947 939.913 356.133 939.913 356.36V366.14C939.913 366.82 940.113 367.38 940.513 367.82C940.913 368.247 941.426 368.46 942.053 368.46H942.593C942.806 368.46 942.979 368.533 943.113 368.68C943.246 368.827 943.313 369.013 943.313 369.24C943.313 369.467 943.233 369.653 943.073 369.8C942.913 369.933 942.713 370 942.473 370H942.053ZM937.073 360.8C936.873 360.8 936.706 360.74 936.573 360.62C936.439 360.487 936.373 360.327 936.373 360.14C936.373 359.94 936.439 359.78 936.573 359.66C936.706 359.527 936.873 359.46 937.073 359.46H942.173C942.373 359.46 942.539 359.527 942.673 359.66C942.806 359.78 942.873 359.94 942.873 360.14C942.873 360.327 942.806 360.487 942.673 360.62C942.539 360.74 942.373 360.8 942.173 360.8H937.073ZM946.92 370C946.68 370 946.486 369.933 946.34 369.8C946.206 369.653 946.14 369.46 946.14 369.22V359.84C946.14 359.6 946.206 359.413 946.34 359.28C946.486 359.133 946.68 359.06 946.92 359.06C947.146 359.06 947.326 359.133 947.46 359.28C947.606 359.413 947.68 359.6 947.68 359.84V369.22C947.68 369.46 947.606 369.653 947.46 369.8C947.326 369.933 947.146 370 946.92 370ZM946.9 356.98C946.606 356.98 946.353 356.873 946.14 356.66C945.926 356.447 945.82 356.187 945.82 355.88C945.82 355.547 945.926 355.287 946.14 355.1C946.366 354.9 946.626 354.8 946.92 354.8C947.2 354.8 947.446 354.9 947.66 355.1C947.886 355.287 948 355.547 948 355.88C948 356.187 947.893 356.447 947.68 356.66C947.466 356.873 947.206 356.98 946.9 356.98ZM956.481 370.1C955.427 370.1 954.487 369.86 953.661 369.38C952.847 368.887 952.201 368.22 951.721 367.38C951.254 366.54 951.021 365.593 951.021 364.54C951.021 363.473 951.247 362.52 951.701 361.68C952.154 360.84 952.774 360.18 953.561 359.7C954.347 359.207 955.254 358.96 956.281 358.96C957.094 358.96 957.841 359.12 958.521 359.44C959.214 359.76 959.821 360.24 960.341 360.88C960.487 361.04 960.541 361.213 960.501 361.4C960.461 361.573 960.347 361.727 960.161 361.86C960.014 361.967 959.847 362.007 959.661 361.98C959.487 361.94 959.334 361.84 959.201 361.68C958.427 360.8 957.454 360.36 956.281 360.36C955.534 360.36 954.874 360.54 954.301 360.9C953.741 361.26 953.301 361.753 952.981 362.38C952.674 363.007 952.521 363.727 952.521 364.54C952.521 365.34 952.687 366.053 953.021 366.68C953.354 367.307 953.821 367.8 954.421 368.16C955.021 368.52 955.707 368.7 956.481 368.7C957.001 368.7 957.474 368.633 957.901 368.5C958.341 368.353 958.727 368.133 959.061 367.84C959.221 367.707 959.387 367.633 959.561 367.62C959.734 367.607 959.894 367.66 960.041 367.78C960.201 367.927 960.287 368.093 960.301 368.28C960.327 368.467 960.267 368.627 960.121 368.76C959.147 369.653 957.934 370.1 956.481 370.1ZM968.455 370.1C967.375 370.1 966.415 369.867 965.575 369.4C964.749 368.92 964.095 368.26 963.615 367.42C963.149 366.58 962.915 365.62 962.915 364.54C962.915 363.447 963.135 362.487 963.575 361.66C964.029 360.82 964.649 360.16 965.435 359.68C966.222 359.2 967.129 358.96 968.155 358.96C969.169 358.96 970.049 359.193 970.795 359.66C971.555 360.113 972.142 360.747 972.555 361.56C972.969 362.373 973.175 363.3 973.175 364.34C973.175 364.553 973.109 364.727 972.975 364.86C972.842 364.98 972.669 365.04 972.455 365.04H963.955V363.76H972.615L971.755 364.38C971.769 363.607 971.629 362.913 971.335 362.3C971.042 361.687 970.622 361.207 970.075 360.86C969.542 360.513 968.902 360.34 968.155 360.34C967.395 360.34 966.729 360.52 966.155 360.88C965.582 361.24 965.135 361.74 964.815 362.38C964.509 363.007 964.355 363.727 964.355 364.54C964.355 365.353 964.529 366.073 964.875 366.7C965.235 367.327 965.722 367.82 966.335 368.18C966.949 368.54 967.655 368.72 968.455 368.72C968.935 368.72 969.415 368.64 969.895 368.48C970.389 368.307 970.782 368.093 971.075 367.84C971.222 367.72 971.389 367.66 971.575 367.66C971.762 367.647 971.922 367.693 972.055 367.8C972.229 367.96 972.315 368.133 972.315 368.32C972.329 368.507 972.255 368.667 972.095 368.8C971.655 369.173 971.095 369.487 970.415 369.74C969.735 369.98 969.082 370.1 968.455 370.1ZM979.6 370.1C978.814 370.1 978.034 369.967 977.26 369.7C976.487 369.433 975.86 369.033 975.38 368.5C975.234 368.34 975.174 368.16 975.2 367.96C975.227 367.76 975.327 367.587 975.5 367.44C975.687 367.307 975.88 367.253 976.08 367.28C976.28 367.307 976.447 367.393 976.58 367.54C976.9 367.913 977.32 368.2 977.84 368.4C978.374 368.6 978.96 368.7 979.6 368.7C980.587 368.7 981.3 368.533 981.74 368.2C982.18 367.853 982.407 367.44 982.42 366.96C982.42 366.48 982.194 366.087 981.74 365.78C981.287 365.46 980.54 365.213 979.5 365.04C978.154 364.827 977.167 364.453 976.54 363.92C975.914 363.387 975.6 362.753 975.6 362.02C975.6 361.34 975.78 360.773 976.14 360.32C976.5 359.867 976.98 359.527 977.58 359.3C978.18 359.073 978.84 358.96 979.56 358.96C980.454 358.96 981.22 359.113 981.86 359.42C982.514 359.727 983.04 360.14 983.44 360.66C983.574 360.833 983.627 361.013 983.6 361.2C983.574 361.387 983.467 361.54 983.28 361.66C983.12 361.753 982.934 361.787 982.72 361.76C982.52 361.72 982.347 361.62 982.2 361.46C981.867 361.073 981.48 360.793 981.04 360.62C980.6 360.433 980.094 360.34 979.52 360.34C978.787 360.34 978.2 360.493 977.76 360.8C977.32 361.093 977.1 361.467 977.1 361.92C977.1 362.227 977.18 362.493 977.34 362.72C977.514 362.947 977.8 363.147 978.2 363.32C978.614 363.493 979.187 363.64 979.92 363.76C980.92 363.92 981.707 364.16 982.28 364.48C982.867 364.787 983.28 365.153 983.52 365.58C983.774 365.993 983.9 366.447 983.9 366.94C983.9 367.567 983.714 368.12 983.34 368.6C982.98 369.067 982.474 369.433 981.82 369.7C981.18 369.967 980.44 370.1 979.6 370.1Z" fill="black"/>
<circle cx="211" cy="306.5" r="75" fill="white"/>
<path d="M171.966 278.249L209.482 256.635C210.421 256.094 211.579 256.094 212.517 256.635L250.035 278.249C250.973 278.79 251.552 279.789 251.552 280.871V324.099C251.552 325.18 250.973 326.181 250.035 326.722L212.517 348.336C211.579 348.877 210.421 348.877 209.482 348.336L171.966 326.722C171.027 326.181 170.448 325.181 170.448 324.099V280.871C170.449 279.789 171.028 278.79 171.966 278.249Z" fill="#FFBA00" fill-opacity="0.6"/>
<path d="M308.544 297.938L263.719 220.121C262.09 217.307 259.082 215.232 255.827 215.232H166.175C162.918 215.232 159.909 217.307 158.281 220.121L113.456 297.766C111.828 300.58 111.828 304.132 113.456 306.947L158.281 384.126C159.909 386.939 162.918 388.378 166.175 388.378H255.826C259.082 388.378 262.09 386.983 263.718 384.168L308.543 306.863C310.173 304.05 310.173 300.751 308.544 297.938ZM271.426 335.357C271.426 336.501 270.736 337.56 269.742 338.132L212.644 371.004C211.651 371.576 210.407 371.576 209.414 371.004L152.272 338.132C151.279 337.56 150.584 336.502 150.584 335.357V269.612C150.584 268.467 151.269 267.41 152.263 266.837L209.358 233.965C210.351 233.392 211.594 233.392 212.587 233.965L269.733 266.837C270.727 267.41 271.426 268.467 271.426 269.612V335.357Z" fill="#FFBA00"/>
</svg>
