<svg width="200" height="200" viewBox="0 0 200 200" fill="none" xmlns="http://www.w3.org/2000/svg">
<circle cx="100" cy="104.5" r="75" fill="white"/>
<path d="M60.9657 76.2486L98.4824 54.6347C99.4213 54.0936 100.579 54.0936 101.517 54.6347L139.035 76.2486C139.973 76.7896 140.552 77.7891 140.552 78.8712V122.099C140.552 123.18 139.973 124.181 139.035 124.722L101.517 146.336C100.579 146.877 99.4213 146.877 98.4824 146.336L60.9657 124.722C60.0269 124.181 59.4482 123.181 59.4482 122.099V78.8712C59.449 77.7891 60.0277 76.7896 60.9657 76.2486Z" fill="#FFBA00" fill-opacity="0.6"/>
<path d="M197.544 95.9377L152.719 18.121C151.09 15.3074 148.082 13.2319 144.827 13.2319H55.1745C51.918 13.2319 48.9094 15.3074 47.2811 18.121L2.45582 95.7661C0.827553 98.5805 0.827553 102.132 2.45582 104.947L47.2811 182.126C48.9094 184.939 51.918 186.378 55.1745 186.378H144.826C148.082 186.378 151.09 184.983 152.718 182.168L197.543 104.863C199.173 102.05 199.173 98.7513 197.544 95.9377ZM160.426 133.357C160.426 134.501 159.736 135.56 158.742 136.132L101.644 169.004C100.651 169.576 99.4072 169.576 98.4142 169.004L41.2723 136.132C40.2793 135.56 39.5844 134.502 39.5844 133.357V67.6121C39.5844 66.4673 40.2692 65.4099 41.263 64.8371L98.3584 31.9649C99.3514 31.3922 100.594 31.3922 101.587 31.9649L158.733 64.8371C159.727 65.4099 160.426 66.4673 160.426 67.6121V133.357Z" fill="#FFBA00"/>
</svg>
